<svg class="main-svg" xmlns="http://www.w3.org/2000/svg" xmlns:xlink="http://www.w3.org/1999/xlink" width="700" height="500" style="" viewBox="0 0 700 500"><rect x="0" y="0" width="700" height="500" style="fill: rgb(255, 255, 255); fill-opacity: 1;"/><defs id="defs-a2898d"><g class="clips"/><g class="gradients"/><g class="patterns"/></defs><g class="bglayer"/><g class="layer-below"><g class="imagelayer"/><g class="shapelayer"/></g><g class="cartesianlayer"/><g class="polarlayer"/><g class="smithlayer"/><g class="ternarylayer"/><g class="geolayer"/><g class="funnelarealayer"/><g class="pielayer"/><g class="iciclelayer"/><g class="treemaplayer"/><g class="sunburstlayer"><g class="trace sunburst" stroke-linejoin="round" style="opacity: 1;"><g class="slice cursor-pointer"><path class="surface" d="M350,275L462.5,275A112.5,112.5 0,1,0 436.9848525164399,346.3434330032779L350,275A0,0 0,1,1 350,275Z" style="pointer-events: all; stroke-width: 1; fill: rgb(136, 204, 238); fill-opacity: 1; stroke: rgb(255, 255, 255); stroke-opacity: 1;"/><g class="slicetext"><text data-notex="1" class="slicetext" text-anchor="middle" x="0" y="0" style="font-family: 'Open Sans', verdana, arial, sans-serif; font-size: 12px; fill: rgb(68, 68, 68); fill-opacity: 1; white-space: pre;" transform="translate(294.032231374992,279)">Community</text></g></g><g class="slice cursor-pointer"><path class="surface" d="M350,275L436.9848525164399,346.3434330032779A112.5,112.5 0,0,0 460.39932441182333,296.6388347517372L350,275A0,0 0,0,1 350,275Z" style="pointer-events: all; stroke-width: 1; fill: rgb(204, 102, 119); fill-opacity: 1; stroke: rgb(255, 255, 255); stroke-opacity: 1;"/><g class="slicetext"><text data-notex="1" class="slicetext" text-anchor="middle" x="0" y="0" style="font-family: 'Open Sans', verdana, arial, sans-serif; font-size: 12px; fill: rgb(68, 68, 68); fill-opacity: 1; white-space: pre;" transform="translate(414.512813257995,309.81181585513104)rotate(25.223837627753028)">Core Team</text></g></g><g class="slice cursor-pointer"><path class="surface" d="M350,275L460.39932441182333,296.6388347517372A112.5,112.5 0,0,0 462.5,275L350,275A0,0 0,0,1 350,275Z" style="pointer-events: all; stroke-width: 1; fill: rgb(221, 204, 119); fill-opacity: 1; stroke: rgb(255, 255, 255); stroke-opacity: 1;"/><g class="slicetext"><text data-notex="1" class="slicetext" text-anchor="middle" x="0" y="0" style="font-family: 'Open Sans', verdana, arial, sans-serif; font-size: 12px; fill: rgb(68, 68, 68); fill-opacity: 1; white-space: pre;" transform="translate(431.93111620515646,285.73895902427523)scale(0.6930348194287866)rotate(5.544839499064324)">Early Backers</text></g></g><g class="slice"><path class="surface" d="M462.5,275L575,275A225,225 0,0,0 157.16735122213788,159.06652957271717L253.58367561106894,217.0332647863586A112.5,112.5 0,0,1 462.5,275Z" style="pointer-events: all; stroke-width: 1; fill: rgb(136, 204, 238); fill-opacity: 1; stroke: rgb(255, 255, 255); stroke-opacity: 1; opacity: 0.7;"/><g class="slicetext"><text data-notex="1" class="slicetext" text-anchor="middle" x="0" y="0" style="font-family: 'Open Sans', verdana, arial, sans-serif; font-size: 12px; fill: rgb(68, 68, 68); fill-opacity: 1; white-space: pre;" transform="translate(398.5968251907015,114.81444219383977)rotate(-74.49258672808412)">LPS</text></g></g><g class="slice"><path class="surface" d="M253.58367561106894,217.0332647863586L157.16735122213788,159.06652957271717A225,225 0,0,0 296.04378965845484,493.4347210623323L323.02189482922745,384.21736053116615A112.5,112.5 0,0,1 253.58367561106894,217.0332647863586Z" style="pointer-events: all; stroke-width: 1; fill: rgb(136, 204, 238); fill-opacity: 1; stroke: rgb(255, 255, 255); stroke-opacity: 1; opacity: 0.7;"/><g class="slicetext"><text data-notex="1" class="slicetext" text-anchor="middle" x="0" y="0" style="font-family: 'Open Sans', verdana, arial, sans-serif; font-size: 12px; fill: rgb(68, 68, 68); fill-opacity: 1; white-space: pre;" transform="translate(181.48715925811644,279)">STAKERS</text></g></g><g class="slice"><path class="surface" d="M323.02189482922745,384.21736053116615L296.04378965845484,493.4347210623323A225,225 0,0,0 427.3952508094842,486.2699106643846L388.6976254047421,380.6349553321923A112.5,112.5 0,0,1 323.02189482922745,384.21736053116615Z" style="pointer-events: all; stroke-width: 1; fill: rgb(136, 204, 238); fill-opacity: 1; stroke: rgb(255, 255, 255); stroke-opacity: 1; opacity: 0.7;"/><g class="slicetext"><text data-notex="1" class="slicetext" text-anchor="middle" x="0" y="0" style="font-family: 'Open Sans', verdana, arial, sans-serif; font-size: 12px; fill: rgb(68, 68, 68); fill-opacity: 1; white-space: pre;" transform="translate(355.1970163981287,443.71662058362455)rotate(86.87778897365774)">TREASURY</text></g></g><g class="slice"><path class="surface" d="M388.6976254047421,380.6349553321923L427.3952508094842,486.2699106643846A225,225 0,0,0 481.683047365245,457.4406068741349L415.8415236826225,366.22030343706746A112.5,112.5 0,0,1 388.6976254047421,380.6349553321923Z" style="pointer-events: all; stroke-width: 1; fill: rgb(136, 204, 238); fill-opacity: 1; stroke: rgb(255, 255, 255); stroke-opacity: 1; opacity: 0.7;"/><g class="slicetext"><text data-notex="1" class="slicetext" text-anchor="middle" x="0" y="0" style="font-family: 'Open Sans', verdana, arial, sans-serif; font-size: 12px; fill: rgb(68, 68, 68); fill-opacity: 1; white-space: pre;" transform="translate(425.60133857442054,425.8563522483216)scale(0.9958605029938543)rotate(62.029653087663746)">INSURANCE_FUND</text></g></g><g class="slice"><path class="surface" d="M415.8415236826225,366.22030343706746L481.683047365245,457.4406068741349A225,225 0,0,0 499.6853129847976,442.98603238556234L424.84265649239876,358.99301619278117A112.5,112.5 0,0,1 415.8415236826225,366.22030343706746Z" style="pointer-events: all; stroke-width: 1; fill: rgb(136, 204, 238); fill-opacity: 1; stroke: rgb(255, 255, 255); stroke-opacity: 1; opacity: 0.7;"/><g class="slicetext"><text data-notex="1" class="slicetext" text-anchor="middle" x="0" y="0" style="font-family: 'Open Sans', verdana, arial, sans-serif; font-size: 12px; fill: rgb(68, 68, 68); fill-opacity: 1; white-space: pre;" transform="translate(459.8681822180846,418.0285332812431)scale(0.9695913745934804)rotate(51.23794443644738)">IA_INCENTIVES</text></g></g><g class="slice"><path class="surface" d="M424.84265649239876,358.99301619278117L499.6853129847976,442.98603238556234A225,225 0,0,0 516.1115843256994,426.76278052541755L433.0557921628497,350.8813902627088A112.5,112.5 0,0,1 424.84265649239876,358.99301619278117Z" style="pointer-events: all; stroke-width: 1; fill: rgb(136, 204, 238); fill-opacity: 1; stroke: rgb(255, 255, 255); stroke-opacity: 1; opacity: 0.7;"/><g class="slicetext"><text data-notex="1" class="slicetext" text-anchor="middle" x="0" y="0" style="font-family: 'Open Sans', verdana, arial, sans-serif; font-size: 12px; fill: rgb(68, 68, 68); fill-opacity: 1; white-space: pre;" transform="translate(473.28046373249714,405.2605116313791)scale(0.9551932157998151)rotate(45.3562688930474)">LA_INCENTIVES</text></g></g><g class="slice"><path class="surface" d="M433.0557921628497,350.8813902627088L516.1115843256994,426.76278052541755A225,225 0,0,0 523.9697050328798,417.68686600655576L436.9848525164399,346.3434330032779A112.5,112.5 0,0,1 433.0557921628497,350.8813902627088Z" style="pointer-events: all; stroke-width: 1; fill: rgb(136, 204, 238); fill-opacity: 1; stroke: rgb(255, 255, 255); stroke-opacity: 1; opacity: 0.7;"/><g class="slicetext"><text data-notex="1" class="slicetext" text-anchor="middle" x="0" y="0" style="font-family: 'Open Sans', verdana, arial, sans-serif; font-size: 12px; fill: rgb(68, 68, 68); fill-opacity: 1; white-space: pre;" transform="translate(493.0510607694317,401.9495441268664)scale(0.5845582623343871)rotate(40.886713689362296)">STAKING_AIRDROP</text></g></g><g class="slice"><path class="surface" d="M436.9848525164399,346.3434330032779L523.9697050328798,417.68686600655576A225,225 0,0,0 570.7986488236467,318.2776695034743L460.39932441182333,296.6388347517372A112.5,112.5 0,0,1 436.9848525164399,346.3434330032779Z" style="pointer-events: all; stroke-width: 1; fill: rgb(204, 102, 119); fill-opacity: 1; stroke: rgb(255, 255, 255); stroke-opacity: 1; opacity: 0.7;"/><g class="slicetext"><text data-notex="1" class="slicetext" text-anchor="middle" x="0" y="0" style="font-family: 'Open Sans', verdana, arial, sans-serif; font-size: 12px; fill: rgb(68, 68, 68); fill-opacity: 1; white-space: pre;" transform="translate(500.8950119045727,350.5040985336059)rotate(25.223837627753028)">TEAM</text></g></g><g class="slice"><path class="surface" d="M460.39932441182333,296.6388347517372L570.7986488236467,318.2776695034743A225,225 0,0,0 574.9057704098634,281.51110100872404L462.4528852049317,278.255550504362A112.5,112.5 0,0,1 460.39932441182333,296.6388347517372Z" style="pointer-events: all; stroke-width: 1; fill: rgb(221, 204, 119); fill-opacity: 1; stroke: rgb(255, 255, 255); stroke-opacity: 1; opacity: 0.7;"/><g class="slicetext"><text data-notex="1" class="slicetext" text-anchor="middle" x="0" y="0" style="font-family: 'Open Sans', verdana, arial, sans-serif; font-size: 12px; fill: rgb(68, 68, 68); fill-opacity: 1; white-space: pre;" transform="translate(542.1824684285393,300.49320834433644)rotate(6.373974377429079)">SEED</text></g></g><g class="slice"><path class="surface" d="M462.4528852049317,278.255550504362L574.9057704098634,281.51110100872404A225,225 0,0,0 575,275.00000000000006L462.5,275A112.5,112.5 0,0,1 462.4528852049317,278.255550504362Z" style="pointer-events: all; stroke-width: 1; fill: rgb(221, 204, 119); fill-opacity: 1; stroke: rgb(255, 255, 255); stroke-opacity: 1; opacity: 0.7;"/><g class="slicetext"><text data-notex="1" class="slicetext" text-anchor="middle" x="0" y="0" style="font-family: 'Open Sans', verdana, arial, sans-serif; font-size: 12px; fill: rgb(68, 68, 68); fill-opacity: 1; white-space: pre;" transform="translate(569.983356335821,279.9150843612787)scale(0.4328180753667297)rotate(0.829134878364755)">IDO</text></g></g></g></g><g class="glimages"/><defs id="topdefs-a2898d"><g class="clips"/></defs><g class="layer-above"><g class="imagelayer"/><g class="shapelayer"/></g><g class="infolayer"><g class="g-gtitle"><text class="gtitle" x="35" y="25" text-anchor="start" dy="0em" style="font-family: 'Open Sans', verdana, arial, sans-serif; font-size: 17px; fill: rgb(42, 63, 95); opacity: 1; font-weight: normal; white-space: pre;"><tspan class="line" dy="0em" x="35" y="25">Final Token Supply</tspan><tspan class="line" dy="1.3em" x="35" y="25">​<tspan style="font-size:70%" dy="-0.6em">Cumulative token distribution 4 years after protocol launch</tspan><tspan dy="0.42em">​</tspan></tspan></text></g></g></svg>