<svg class="main-svg" xmlns="http://www.w3.org/2000/svg" xmlns:xlink="http://www.w3.org/1999/xlink" width="700" height="500" style="" viewBox="0 0 700 500"><rect x="0" y="0" width="700" height="500" style="fill: rgb(255, 255, 255); fill-opacity: 1;"/><defs id="defs-a66d9b"><g class="clips"/><g class="gradients"/><g class="patterns"/></defs><g class="bglayer"/><g class="layer-below"><g class="imagelayer"/><g class="shapelayer"/></g><g class="cartesianlayer"/><g class="polarlayer"/><g class="smithlayer"/><g class="ternarylayer"/><g class="geolayer"/><g class="funnelarealayer"/><g class="pielayer"/><g class="iciclelayer"/><g class="treemaplayer"/><g class="sunburstlayer"><g class="trace sunburst" stroke-linejoin="round" style="opacity: 1;"><g class="slice cursor-pointer"><path class="surface" d="M350,275L462.5,275A112.5,112.5 0,1,0 249.0386893622026,324.6292630843757L350,275A0,0 0,1,1 350,275Z" style="pointer-events: all; stroke-width: 1; fill: rgb(136, 204, 238); fill-opacity: 1; stroke: rgb(255, 255, 255); stroke-opacity: 1;"/><g class="slicetext"><text data-notex="1" class="slicetext" text-anchor="middle" x="0" y="0" style="font-family: 'Open Sans', verdana, arial, sans-serif; font-size: 12px; fill: rgb(68, 68, 68); fill-opacity: 1; white-space: pre;" transform="translate(284.40932167489274,279)">Community</text></g></g><g class="slice cursor-pointer"><path class="surface" d="M350,275L249.0386893622026,324.6292630843757A112.5,112.5 0,0,0 431.81816305269655,352.2142356996581L350,275A0,0 0,0,1 350,275Z" style="pointer-events: all; stroke-width: 1; fill: rgb(204, 102, 119); fill-opacity: 1; stroke: rgb(255, 255, 255); stroke-opacity: 1;"/><g class="slicetext"><text data-notex="1" class="slicetext" text-anchor="middle" x="0" y="0" style="font-family: 'Open Sans', verdana, arial, sans-serif; font-size: 12px; fill: rgb(68, 68, 68); fill-opacity: 1; white-space: pre;" transform="translate(345.00972327480144,334.8701839933479)rotate(-81.41772151898738)">Core Team</text></g></g><g class="slice cursor-pointer"><path class="surface" d="M350,275L431.81816305269655,352.2142356996581A112.5,112.5 0,0,0 462.5,275L350,275A0,0 0,0,1 350,275Z" style="pointer-events: all; stroke-width: 1; fill: rgb(221, 204, 119); fill-opacity: 1; stroke: rgb(255, 255, 255); stroke-opacity: 1;"/><g class="slicetext"><text data-notex="1" class="slicetext" text-anchor="middle" x="0" y="0" style="font-family: 'Open Sans', verdana, arial, sans-serif; font-size: 12px; fill: rgb(68, 68, 68); fill-opacity: 1; white-space: pre;" transform="translate(409.943873537045,303.12350936916073)rotate(21.670886075949397)">Early Backers</text></g></g><g class="slice"><path class="surface" d="M462.5,275L575,275A225,225 0,0,0 196.95072313837346,110.07298931911367L273.4753615691867,192.53649465955684A112.5,112.5 0,0,1 462.5,275Z" style="pointer-events: all; stroke-width: 1; fill: rgb(136, 204, 238); fill-opacity: 1; stroke: rgb(255, 255, 255); stroke-opacity: 1; opacity: 0.7;"/><g class="slicetext"><text data-notex="1" class="slicetext" text-anchor="middle" x="0" y="0" style="font-family: 'Open Sans', verdana, arial, sans-serif; font-size: 12px; fill: rgb(68, 68, 68); fill-opacity: 1; white-space: pre;" transform="translate(421.14289435964196,121.9281357573053)rotate(-66.43037974683546)">TREASURY</text></g></g><g class="slice"><path class="surface" d="M273.4753615691867,192.53649465955684L196.95072313837346,110.07298931911367A225,225 0,0,0 131.90164866582109,330.3001731038254L240.95082433291054,302.6500865519127A112.5,112.5 0,0,1 273.4753615691867,192.53649465955684Z" style="pointer-events: all; stroke-width: 1; fill: rgb(136, 204, 238); fill-opacity: 1; stroke: rgb(255, 255, 255); stroke-opacity: 1; opacity: 0.7;"/><g class="slicetext"><text data-notex="1" class="slicetext" text-anchor="middle" x="0" y="0" style="font-family: 'Open Sans', verdana, arial, sans-serif; font-size: 12px; fill: rgb(68, 68, 68); fill-opacity: 1; white-space: pre;" transform="translate(181.30698414679077,278.9834420119754)scale(0.9958605029938543)">INSURANCE_FUND</text></g></g><g class="slice"><path class="surface" d="M240.95082433291054,302.6500865519127L131.90164866582109,330.3001731038254A225,225 0,0,0 148.07737872440518,374.25852616875136L249.0386893622026,324.6292630843757A112.5,112.5 0,0,1 240.95082433291054,302.6500865519127Z" style="pointer-events: all; stroke-width: 1; fill: rgb(136, 204, 238); fill-opacity: 1; stroke: rgb(255, 255, 255); stroke-opacity: 1; opacity: 0.7;"/><g class="slicetext"><text data-notex="1" class="slicetext" text-anchor="middle" x="0" y="0" style="font-family: 'Open Sans', verdana, arial, sans-serif; font-size: 12px; fill: rgb(68, 68, 68); fill-opacity: 1; white-space: pre;" transform="translate(193.0288991124787,336.9146080906929)scale(0.9742838427067991)rotate(-20.202531645569593)">STAKING_AIRDROP</text></g></g><g class="slice"><path class="surface" d="M249.0386893622026,324.6292630843757L148.07737872440518,374.25852616875136A225,225 0,0,0 148.07737872440518,374.25852616875136L249.0386893622026,324.6292630843757A112.5,112.5 0,0,1 249.0386893622026,324.6292630843757Z" style="pointer-events: all; stroke-width: 1; fill: rgb(136, 204, 238); fill-opacity: 1; stroke: rgb(255, 255, 255); stroke-opacity: 1; opacity: 0.7;"/><g class="slicetext"><text data-notex="1" class="slicetext" text-anchor="middle" x="0" y="0" style="font-family: 'Open Sans', verdana, arial, sans-serif; font-size: 12px; fill: rgb(68, 68, 68); fill-opacity: 1; white-space: pre;" transform="translate(350,106.25)scale(0)">IA_INCENTIVES</text></g></g><g class="slice"><path class="surface" d="M249.0386893622026,324.6292630843757L148.07737872440518,374.25852616875136A225,225 0,0,0 148.07737872440518,374.25852616875136L249.0386893622026,324.6292630843757A112.5,112.5 0,0,1 249.0386893622026,324.6292630843757Z" style="pointer-events: all; stroke-width: 1; fill: rgb(136, 204, 238); fill-opacity: 1; stroke: rgb(255, 255, 255); stroke-opacity: 1; opacity: 0.7;"/><g class="slicetext"><text data-notex="1" class="slicetext" text-anchor="middle" x="0" y="0" style="font-family: 'Open Sans', verdana, arial, sans-serif; font-size: 12px; fill: rgb(68, 68, 68); fill-opacity: 1; white-space: pre;" transform="translate(350,106.25)scale(0)">LA_INCENTIVES</text></g></g><g class="slice"><path class="surface" d="M249.0386893622026,324.6292630843757L148.07737872440518,374.25852616875136A225,225 0,0,0 148.07737872440518,374.25852616875136L249.0386893622026,324.6292630843757A112.5,112.5 0,0,1 249.0386893622026,324.6292630843757Z" style="pointer-events: all; stroke-width: 1; fill: rgb(136, 204, 238); fill-opacity: 1; stroke: rgb(255, 255, 255); stroke-opacity: 1; opacity: 0.7;"/><g class="slicetext"><text data-notex="1" class="slicetext" text-anchor="middle" x="0" y="0" style="font-family: 'Open Sans', verdana, arial, sans-serif; font-size: 12px; fill: rgb(68, 68, 68); fill-opacity: 1; white-space: pre;" transform="translate(350,106.25)scale(0)">LPS</text></g></g><g class="slice"><path class="surface" d="M249.0386893622026,324.6292630843757L148.07737872440518,374.25852616875136A225,225 0,0,0 148.07737872440518,374.25852616875136L249.0386893622026,324.6292630843757A112.5,112.5 0,0,1 249.0386893622026,324.6292630843757Z" style="pointer-events: all; stroke-width: 1; fill: rgb(136, 204, 238); fill-opacity: 1; stroke: rgb(255, 255, 255); stroke-opacity: 1; opacity: 0.7;"/><g class="slicetext"><text data-notex="1" class="slicetext" text-anchor="middle" x="0" y="0" style="font-family: 'Open Sans', verdana, arial, sans-serif; font-size: 12px; fill: rgb(68, 68, 68); fill-opacity: 1; white-space: pre;" transform="translate(350,106.25)scale(0)">STAKERS</text></g></g><g class="slice"><path class="surface" d="M249.0386893622026,324.6292630843757L148.07737872440518,374.25852616875136A225,225 0,0,0 513.6363261053931,429.4284713993162L431.81816305269655,352.2142356996581A112.5,112.5 0,0,1 249.0386893622026,324.6292630843757Z" style="pointer-events: all; stroke-width: 1; fill: rgb(204, 102, 119); fill-opacity: 1; stroke: rgb(255, 255, 255); stroke-opacity: 1; opacity: 0.7;"/><g class="slicetext"><text data-notex="1" class="slicetext" text-anchor="middle" x="0" y="0" style="font-family: 'Open Sans', verdana, arial, sans-serif; font-size: 12px; fill: rgb(68, 68, 68); fill-opacity: 1; white-space: pre;" transform="translate(328.9318606800715,441.402943844802)rotate(-81.41772151898738)">TEAM</text></g></g><g class="slice"><path class="surface" d="M431.81816305269655,352.2142356996581L513.6363261053931,429.4284713993162A225,225 0,0,0 573.5620960361476,300.39663788623L461.7810480180738,287.698318943115A112.5,112.5 0,0,1 431.81816305269655,352.2142356996581Z" style="pointer-events: all; stroke-width: 1; fill: rgb(221, 204, 119); fill-opacity: 1; stroke: rgb(255, 255, 255); stroke-opacity: 1; opacity: 0.7;"/><g class="slicetext"><text data-notex="1" class="slicetext" text-anchor="middle" x="0" y="0" style="font-family: 'Open Sans', verdana, arial, sans-serif; font-size: 12px; fill: rgb(68, 68, 68); fill-opacity: 1; white-space: pre;" transform="translate(500.7708488951887,349.43227568749626)rotate(24.911392405063282)">SEED</text></g></g><g class="slice"><path class="surface" d="M461.7810480180738,287.698318943115L573.5620960361476,300.39663788623A225,225 0,0,0 575,275.00000000000006L462.5,275A112.5,112.5 0,0,1 461.7810480180738,287.698318943115Z" style="pointer-events: all; stroke-width: 1; fill: rgb(221, 204, 119); fill-opacity: 1; stroke: rgb(255, 255, 255); stroke-opacity: 1; opacity: 0.7;"/><g class="slicetext"><text data-notex="1" class="slicetext" text-anchor="middle" x="0" y="0" style="font-family: 'Open Sans', verdana, arial, sans-serif; font-size: 12px; fill: rgb(68, 68, 68); fill-opacity: 1; white-space: pre;" transform="translate(557.0451727751506,290.72886615366394)rotate(3.2405063291139413)">IDO</text></g></g></g></g><g class="glimages"/><defs id="topdefs-a66d9b"><g class="clips"/></defs><g class="layer-above"><g class="imagelayer"/><g class="shapelayer"/></g><g class="infolayer"><g class="g-gtitle"><text class="gtitle" x="35" y="25" text-anchor="start" dy="0em" style="font-family: 'Open Sans', verdana, arial, sans-serif; font-size: 17px; fill: rgb(42, 63, 95); opacity: 1; font-weight: normal; white-space: pre;"><tspan class="line" dy="0em" x="35" y="25">Genesis Supply</tspan><tspan class="line" dy="1.3em" x="35" y="25">​<tspan style="font-size:70%" dy="-0.6em">Token distribution at the time of protocol launch</tspan><tspan dy="0.42em">​</tspan></tspan></text></g></g></svg>