<svg class="main-svg" xmlns="http://www.w3.org/2000/svg" xmlns:xlink="http://www.w3.org/1999/xlink" width="700" height="500" style="" viewBox="0 0 700 500"><rect x="0" y="0" width="700" height="500" style="fill: rgb(255, 255, 255); fill-opacity: 1;"/><defs id="defs-614af7"><g class="clips"><clipPath id="clip614af7xyplot" class="plotclip"><rect width="483" height="320"/></clipPath><clipPath class="axesclip" id="clip614af7x"><rect x="80" y="0" width="483" height="500"/></clipPath><clipPath class="axesclip" id="clip614af7y"><rect x="0" y="100" width="700" height="320"/></clipPath><clipPath class="axesclip" id="clip614af7xy"><rect x="80" y="100" width="483" height="320"/></clipPath></g><g class="gradients"/><g class="patterns"/></defs><g class="bglayer"><rect class="bg" x="80" y="100" width="483" height="320" style="fill: rgb(229, 236, 246); fill-opacity: 1; stroke-width: 0;"/></g><g class="layer-below"><g class="imagelayer"/><g class="shapelayer"/></g><g class="cartesianlayer"><g class="subplot xy"><g class="layer-subplot"><g class="shapelayer"/><g class="imagelayer"/></g><g class="gridlayer"><g class="x"><path class="xgrid crisp" transform="translate(200.75,0)" d="M0,100v320" style="stroke: rgb(255, 255, 255); stroke-opacity: 1; stroke-width: 1px;"/><path class="xgrid crisp" transform="translate(321.5,0)" d="M0,100v320" style="stroke: rgb(255, 255, 255); stroke-opacity: 1; stroke-width: 1px;"/><path class="xgrid crisp" transform="translate(442.25,0)" d="M0,100v320" style="stroke: rgb(255, 255, 255); stroke-opacity: 1; stroke-width: 1px;"/></g><g class="y"><path class="ygrid crisp" transform="translate(0,379.47)" d="M80,0h483" style="stroke: rgb(255, 255, 255); stroke-opacity: 1; stroke-width: 1px;"/><path class="ygrid crisp" transform="translate(0,338.93)" d="M80,0h483" style="stroke: rgb(255, 255, 255); stroke-opacity: 1; stroke-width: 1px;"/><path class="ygrid crisp" transform="translate(0,298.4)" d="M80,0h483" style="stroke: rgb(255, 255, 255); stroke-opacity: 1; stroke-width: 1px;"/><path class="ygrid crisp" transform="translate(0,257.87)" d="M80,0h483" style="stroke: rgb(255, 255, 255); stroke-opacity: 1; stroke-width: 1px;"/><path class="ygrid crisp" transform="translate(0,217.32999999999998)" d="M80,0h483" style="stroke: rgb(255, 255, 255); stroke-opacity: 1; stroke-width: 1px;"/><path class="ygrid crisp" transform="translate(0,176.8)" d="M80,0h483" style="stroke: rgb(255, 255, 255); stroke-opacity: 1; stroke-width: 1px;"/><path class="ygrid crisp" transform="translate(0,136.27)" d="M80,0h483" style="stroke: rgb(255, 255, 255); stroke-opacity: 1; stroke-width: 1px;"/></g></g><g class="zerolinelayer"><path class="xzl zl crisp" transform="translate(80,0)" d="M0,100v320" style="stroke: rgb(255, 255, 255); stroke-opacity: 1; stroke-width: 2px;"/><path class="yzl zl crisp" transform="translate(0,420)" d="M80,0h483" style="stroke: rgb(255, 255, 255); stroke-opacity: 1; stroke-width: 2px;"/></g><path class="xlines-below"/><path class="ylines-below"/><g class="overlines-below"/><g class="xaxislayer-below"/><g class="yaxislayer-below"/><g class="overaxes-below"/><g class="plot" transform="translate(80,100)" clip-path="url(#clip614af7xyplot)"><g class="scatterlayer mlayer"><g class="trace scatter trace83f05c" style="stroke-miterlimit: 2;"><g class="fills"><g><path class="js-fill" d="M483,320L0,320L0,320L54.18,308.41L54.18,308.4L108.34,296.82L108.34,296.81L162.5,285.23L162.5,285.22L216.66,273.64L216.66,273.63L245.3,268.32L245.3,268.32L245.31,268.32L483,268.32L483,268.32" style="fill: rgb(0, 93, 93); fill-opacity: 0.5; stroke-width: 0;"/></g><g><path class="js-fill" d="M0,320L242.29,256.16L242.29,256.16L242.3,256.16L483,256.16L483,256.16L483,268.32L483,268.32L245.31,268.32L245.3,268.32L245.3,268.32L216.66,273.63L216.66,273.64L162.5,285.22L162.5,285.23L108.34,296.81L108.34,296.82L54.18,308.4L54.18,308.41L0,320Z" style="fill: rgb(159, 24, 83); fill-opacity: 0.5; stroke-width: 0;"/></g></g><g class="errorbars"/><g class="lines"><path class="js-line" d="M0,320L54.18,308.41L54.18,308.4L108.34,296.82L108.34,296.81L162.5,285.23L162.5,285.22L216.66,273.64L216.66,273.63L245.3,268.32L245.3,268.32L245.31,268.32L483,268.32L483,268.32" style="vector-effect: non-scaling-stroke; fill: none; stroke: rgb(0, 93, 93); stroke-opacity: 1; stroke-width: 0.5px; opacity: 1;"/></g><g class="points"/><g class="text"/></g><g class="trace scatter tracedad63e" style="stroke-miterlimit: 2;"><g class="fills"><g><path class="js-fill" d="M0,320L61.46,294.47L61.46,294.47L61.47,294.47L122.99,268.91L122.99,268.91L123,268.91L184.52,243.35L184.52,243.35L184.53,243.35L241.64,219.68L241.64,219.68L241.65,219.68L483,219.68L483,219.68L483,256.16L483,256.16L242.3,256.16L242.29,256.16L242.29,256.16L0,320Z" style="fill: rgb(87, 4, 8); fill-opacity: 0.5; stroke-width: 0;"/></g></g><g class="errorbars"/><g class="lines"><path class="js-line" d="M0,320L242.29,256.16L242.29,256.16L242.3,256.16L483,256.16L483,256.16" style="vector-effect: non-scaling-stroke; fill: none; stroke: rgb(159, 24, 83); stroke-opacity: 1; stroke-width: 0.5px; opacity: 1;"/></g><g class="points"/><g class="text"/></g><g class="trace scatter trace1132b1" style="stroke-miterlimit: 2;"><g class="fills"><g><path class="js-fill" d="M0,320L234.89,201.73L234.89,201.73L234.89,201.72L243.39,198.4L243.39,198.4L243.4,198.4L483,198.4L483,198.4L483,219.68L483,219.68L241.65,219.68L241.64,219.68L241.64,219.68L184.53,243.35L184.52,243.35L184.52,243.35L123,268.91L122.99,268.91L122.99,268.91L61.47,294.47L61.46,294.47L61.46,294.47L0,320Z" style="fill: rgb(105, 41, 196); fill-opacity: 0.5; stroke-width: 0;"/></g></g><g class="errorbars"/><g class="lines"><path class="js-line" d="M0,320L61.46,294.47L61.46,294.47L61.47,294.47L122.99,268.91L122.99,268.91L123,268.91L184.52,243.35L184.52,243.35L184.53,243.35L241.64,219.68L241.64,219.68L241.65,219.68L483,219.68L483,219.68" style="vector-effect: non-scaling-stroke; fill: none; stroke: rgb(87, 4, 8); stroke-opacity: 1; stroke-width: 0.5px; opacity: 1;"/></g><g class="points"/><g class="text"/></g><g class="trace scatter trace8021dc" style="stroke-miterlimit: 2;"><g class="fills"><g><path class="js-fill" d="M0,320L19.56,289.63L19.57,289.63L31.85,271.09L31.85,271.09L31.86,271.08L89.61,201.95L89.62,201.95L95.96,195.5L95.96,195.5L95.97,195.5L160.49,132.03L160.49,132.03L160.5,132.03L178.98,114.61L178.98,114.61L178.99,114.61L189.97,104.69L189.97,104.69L189.98,104.69L200.01,95.72L200.01,95.72L200.02,95.72L210.06,86.74L210.06,86.74L210.07,86.74L217.33,80.54L217.33,80.54L217.34,80.54L231.42,68.64L231.42,68.64L231.43,68.64L241.97,59.99L241.97,59.99L241.98,59.99L302.86,43.76L302.86,43.76L302.87,43.76L343.4,36.41L343.4,36.41L343.41,36.41L357.63,34.33L357.63,34.33L357.64,34.33L379.81,30.66L379.81,30.66L379.82,30.66L399.67,27.45L399.67,27.45L399.68,27.45L413.95,25.36L413.95,25.36L413.96,25.36L483,16L483,16L483,198.4L483,198.4L243.4,198.4L243.39,198.4L243.39,198.4L234.89,201.72L234.89,201.73L234.89,201.73L0,320Z" style="fill: rgb(17, 146, 232); fill-opacity: 0.5; stroke-width: 0;"/></g></g><g class="errorbars"/><g class="lines"><path class="js-line" d="M0,320L234.89,201.73L234.89,201.73L234.89,201.72L243.39,198.4L243.39,198.4L243.4,198.4L483,198.4L483,198.4" style="vector-effect: non-scaling-stroke; fill: none; stroke: rgb(105, 41, 196); stroke-opacity: 1; stroke-width: 0.5px; opacity: 1;"/></g><g class="points"/><g class="text"/></g><g class="trace scatter trace432738" style="stroke-miterlimit: 2;"><g class="fills"/><g class="errorbars"/><g class="lines"><path class="js-line" d="M0,320L19.56,289.63L19.57,289.63L31.85,271.09L31.85,271.09L31.86,271.08L89.61,201.95L89.62,201.95L95.96,195.5L95.96,195.5L95.97,195.5L160.49,132.03L160.49,132.03L160.5,132.03L178.98,114.61L178.98,114.61L178.99,114.61L189.97,104.69L189.97,104.69L189.98,104.69L200.01,95.72L200.01,95.72L200.02,95.72L210.06,86.74L210.06,86.74L210.07,86.74L217.33,80.54L217.33,80.54L217.34,80.54L231.42,68.64L231.42,68.64L231.43,68.64L241.97,59.99L241.97,59.99L241.98,59.99L302.86,43.76L302.86,43.76L302.87,43.76L343.4,36.41L343.4,36.41L343.41,36.41L357.63,34.33L357.63,34.33L357.64,34.33L379.81,30.66L379.81,30.66L379.82,30.66L399.67,27.45L399.67,27.45L399.68,27.45L413.95,25.36L413.95,25.36L413.96,25.36L483,16L483,16" style="vector-effect: non-scaling-stroke; fill: none; stroke: rgb(17, 146, 232); stroke-opacity: 1; stroke-width: 0.5px; opacity: 1;"/></g><g class="points"/><g class="text"/></g></g></g><g class="overplot"/><path class="xlines-above crisp" d="M0,0" style="fill: none;"/><path class="ylines-above crisp" d="M0,0" style="fill: none;"/><g class="overlines-above"/><g class="xaxislayer-above"><g class="xtick"><text text-anchor="middle" x="0" y="433" transform="translate(80,0)" style="font-family: 'IBM Plex Mono'; font-size: 12px; fill: rgb(42, 63, 95); fill-opacity: 1; white-space: pre; opacity: 1;">0</text></g><g class="xtick"><text text-anchor="middle" x="0" y="433" style="font-family: 'IBM Plex Mono'; font-size: 12px; fill: rgb(42, 63, 95); fill-opacity: 1; white-space: pre; opacity: 1;" transform="translate(200.75,0)">2</text></g><g class="xtick"><text text-anchor="middle" x="0" y="433" style="font-family: 'IBM Plex Mono'; font-size: 12px; fill: rgb(42, 63, 95); fill-opacity: 1; white-space: pre; opacity: 1;" transform="translate(321.5,0)">4</text></g><g class="xtick"><text text-anchor="middle" x="0" y="433" style="font-family: 'IBM Plex Mono'; font-size: 12px; fill: rgb(42, 63, 95); fill-opacity: 1; white-space: pre; opacity: 1;" transform="translate(442.25,0)">6</text></g><g class="xtick"><text text-anchor="middle" x="0" y="433" style="font-family: 'IBM Plex Mono'; font-size: 12px; fill: rgb(42, 63, 95); fill-opacity: 1; white-space: pre; opacity: 1;" transform="translate(563,0)">8</text></g></g><g class="yaxislayer-above"><g class="ytick"><text text-anchor="end" x="79" y="4.199999999999999" transform="translate(0,420)" style="font-family: 'IBM Plex Mono'; font-size: 12px; fill: rgb(42, 63, 95); fill-opacity: 1; white-space: pre; opacity: 1;">0</text></g><g class="ytick"><text text-anchor="end" x="79" y="4.199999999999999" style="font-family: 'IBM Plex Mono'; font-size: 12px; fill: rgb(42, 63, 95); fill-opacity: 1; white-space: pre; opacity: 1;" transform="translate(0,379.47)">0.2B</text></g><g class="ytick"><text text-anchor="end" x="79" y="4.199999999999999" style="font-family: 'IBM Plex Mono'; font-size: 12px; fill: rgb(42, 63, 95); fill-opacity: 1; white-space: pre; opacity: 1;" transform="translate(0,338.93)">0.4B</text></g><g class="ytick"><text text-anchor="end" x="79" y="4.199999999999999" style="font-family: 'IBM Plex Mono'; font-size: 12px; fill: rgb(42, 63, 95); fill-opacity: 1; white-space: pre; opacity: 1;" transform="translate(0,298.4)">0.6B</text></g><g class="ytick"><text text-anchor="end" x="79" y="4.199999999999999" style="font-family: 'IBM Plex Mono'; font-size: 12px; fill: rgb(42, 63, 95); fill-opacity: 1; white-space: pre; opacity: 1;" transform="translate(0,257.87)">0.8B</text></g><g class="ytick"><text text-anchor="end" x="79" y="4.199999999999999" style="font-family: 'IBM Plex Mono'; font-size: 12px; fill: rgb(42, 63, 95); fill-opacity: 1; white-space: pre; opacity: 1;" transform="translate(0,217.32999999999998)">1B</text></g><g class="ytick"><text text-anchor="end" x="79" y="4.199999999999999" style="font-family: 'IBM Plex Mono'; font-size: 12px; fill: rgb(42, 63, 95); fill-opacity: 1; white-space: pre; opacity: 1;" transform="translate(0,176.8)">1.2B</text></g><g class="ytick"><text text-anchor="end" x="79" y="4.199999999999999" style="font-family: 'IBM Plex Mono'; font-size: 12px; fill: rgb(42, 63, 95); fill-opacity: 1; white-space: pre; opacity: 1;" transform="translate(0,136.27)">1.4B</text></g></g><g class="overaxes-above"/></g></g><g class="polarlayer"/><g class="smithlayer"/><g class="ternarylayer"/><g class="geolayer"/><g class="funnelarealayer"/><g class="pielayer"/><g class="iciclelayer"/><g class="treemaplayer"/><g class="sunburstlayer"/><g class="glimages"/><defs id="topdefs-614af7"><g class="clips"/><clipPath id="legend614af7"><rect width="115" height="105" x="0" y="0"/></clipPath></defs><g class="layer-above"><g class="imagelayer"/><g class="shapelayer"/></g><g class="infolayer"><g class="legend" pointer-events="all" transform="translate(572.6600000000001,100)"><rect class="bg" shape-rendering="crispEdges" style="stroke: rgb(68, 68, 68); stroke-opacity: 1; fill: rgb(255, 255, 255); fill-opacity: 1; stroke-width: 0px;" width="115" height="105" x="0" y="0"/><g class="scrollbox" transform="" clip-path="url(#legend614af7)"><g class="groups"><g class="traces" transform="translate(0,14.5)" style="opacity: 1;"><text class="legendtext" text-anchor="start" x="40" y="4.680000000000001" style="font-family: 'IBM Plex Mono'; font-size: 12px; fill: rgb(42, 63, 95); fill-opacity: 1; white-space: pre;">Community</text><g class="layers"><g class="legendfill"><path class="js-fill" d="M5,-2h30v6h-30z" style="stroke-width: 0; fill: rgb(17, 146, 232); fill-opacity: 0.5;"/></g><g class="legendlines"><path class="js-line" d="M5,-2h30" style="fill: none; stroke: rgb(17, 146, 232); stroke-opacity: 1; stroke-width: 0.5px;"/></g><g class="legendsymbols"><g class="legendpoints"/></g></g><rect class="legendtoggle" x="0" y="-9.5" width="110" height="19" style="fill: rgb(0, 0, 0); fill-opacity: 0;"/></g><g class="traces" transform="translate(0,33.5)" style="opacity: 1;"><text class="legendtext" text-anchor="start" x="40" y="4.680000000000001" style="font-family: 'IBM Plex Mono'; font-size: 12px; fill: rgb(42, 63, 95); fill-opacity: 1; white-space: pre;">Seed</text><g class="layers"><g class="legendfill"><path class="js-fill" d="M5,-2h30v6h-30z" style="stroke-width: 0; fill: rgb(105, 41, 196); fill-opacity: 0.5;"/></g><g class="legendlines"><path class="js-line" d="M5,-2h30" style="fill: none; stroke: rgb(105, 41, 196); stroke-opacity: 1; stroke-width: 0.5px;"/></g><g class="legendsymbols"><g class="legendpoints"/></g></g><rect class="legendtoggle" x="0" y="-9.5" width="110" height="19" style="fill: rgb(0, 0, 0); fill-opacity: 0;"/></g><g class="traces" transform="translate(0,52.5)" style="opacity: 1;"><text class="legendtext" text-anchor="start" x="40" y="4.680000000000001" style="font-family: 'IBM Plex Mono'; font-size: 12px; fill: rgb(42, 63, 95); fill-opacity: 1; white-space: pre;">Private</text><g class="layers"><g class="legendfill"><path class="js-fill" d="M5,-2h30v6h-30z" style="stroke-width: 0; fill: rgb(87, 4, 8); fill-opacity: 0.5;"/></g><g class="legendlines"><path class="js-line" d="M5,-2h30" style="fill: none; stroke: rgb(87, 4, 8); stroke-opacity: 1; stroke-width: 0.5px;"/></g><g class="legendsymbols"><g class="legendpoints"/></g></g><rect class="legendtoggle" x="0" y="-9.5" width="110" height="19" style="fill: rgb(0, 0, 0); fill-opacity: 0;"/></g><g class="traces" transform="translate(0,71.5)" style="opacity: 1;"><text class="legendtext" text-anchor="start" x="40" y="4.680000000000001" style="font-family: 'IBM Plex Mono'; font-size: 12px; fill: rgb(42, 63, 95); fill-opacity: 1; white-space: pre;">Treasury</text><g class="layers"><g class="legendfill"><path class="js-fill" d="M5,-2h30v6h-30z" style="stroke-width: 0; fill: rgb(159, 24, 83); fill-opacity: 0.5;"/></g><g class="legendlines"><path class="js-line" d="M5,-2h30" style="fill: none; stroke: rgb(159, 24, 83); stroke-opacity: 1; stroke-width: 0.5px;"/></g><g class="legendsymbols"><g class="legendpoints"/></g></g><rect class="legendtoggle" x="0" y="-9.5" width="110" height="19" style="fill: rgb(0, 0, 0); fill-opacity: 0;"/></g><g class="traces" transform="translate(0,90.5)" style="opacity: 1;"><text class="legendtext" text-anchor="start" x="40" y="4.680000000000001" style="font-family: 'IBM Plex Mono'; font-size: 12px; fill: rgb(42, 63, 95); fill-opacity: 1; white-space: pre;">Team</text><g class="layers"><g class="legendfill"><path class="js-fill" d="M5,-2h30v6h-30z" style="stroke-width: 0; fill: rgb(0, 93, 93); fill-opacity: 0.5;"/></g><g class="legendlines"><path class="js-line" d="M5,-2h30" style="fill: none; stroke: rgb(0, 93, 93); stroke-opacity: 1; stroke-width: 0.5px;"/></g><g class="legendsymbols"><g class="legendpoints"/></g></g><rect class="legendtoggle" x="0" y="-9.5" width="110" height="19" style="fill: rgb(0, 0, 0); fill-opacity: 0;"/></g></g></g><rect class="scrollbar" rx="20" ry="3" width="0" height="0" style="fill: rgb(128, 139, 164); fill-opacity: 1;" x="0" y="0"/></g><g class="g-gtitle"/><g class="g-xtitle"><text class="xtitle" x="321.5" y="460.8" text-anchor="middle" style="font-family: 'IBM Plex Mono'; font-size: 14px; fill: rgb(42, 63, 95); opacity: 1; font-weight: normal; white-space: pre;">Time (years)</text></g><g class="g-ytitle"><text class="ytitle" transform="rotate(-90,26.200000000000003,260)" x="26.200000000000003" y="260" text-anchor="middle" style="font-family: 'IBM Plex Mono'; font-size: 14px; fill: rgb(42, 63, 95); opacity: 1; font-weight: normal; white-space: pre;">NIBI amount</text></g></g></svg>