<svg class="main-svg" xmlns="http://www.w3.org/2000/svg" xmlns:xlink="http://www.w3.org/1999/xlink" width="700" height="500" style="" viewBox="0 0 700 500"><rect x="0" y="0" width="700" height="500" style="fill: rgb(255, 255, 255); fill-opacity: 1;"/><defs id="defs-90c816"><g class="clips"><clipPath id="clip90c816xyplot" class="plotclip"><rect width="540" height="320"/></clipPath><clipPath class="axesclip" id="clip90c816x"><rect x="80" y="0" width="540" height="500"/></clipPath><clipPath class="axesclip" id="clip90c816y"><rect x="0" y="100" width="700" height="320"/></clipPath><clipPath class="axesclip" id="clip90c816xy"><rect x="80" y="100" width="540" height="320"/></clipPath></g><g class="gradients"/><g class="patterns"/></defs><g class="bglayer"/><g class="layer-below"><g class="imagelayer"/><g class="shapelayer"/></g><g class="cartesianlayer"><g class="subplot xy"><g class="layer-subplot"><g class="shapelayer"/><g class="imagelayer"/></g><g class="gridlayer"><g class="x"><path class="xgrid crisp" transform="translate(215,0)" d="M0,100v320" style="stroke: rgb(238, 238, 238); stroke-opacity: 1; stroke-width: 1px;"/><path class="xgrid crisp" transform="translate(350,0)" d="M0,100v320" style="stroke: rgb(238, 238, 238); stroke-opacity: 1; stroke-width: 1px;"/><path class="xgrid crisp" transform="translate(485,0)" d="M0,100v320" style="stroke: rgb(238, 238, 238); stroke-opacity: 1; stroke-width: 1px;"/></g><g class="y"><path class="ygrid crisp" transform="translate(0,379.47)" d="M80,0h540" style="stroke: rgb(238, 238, 238); stroke-opacity: 1; stroke-width: 1px;"/><path class="ygrid crisp" transform="translate(0,338.93)" d="M80,0h540" style="stroke: rgb(238, 238, 238); stroke-opacity: 1; stroke-width: 1px;"/><path class="ygrid crisp" transform="translate(0,298.4)" d="M80,0h540" style="stroke: rgb(238, 238, 238); stroke-opacity: 1; stroke-width: 1px;"/><path class="ygrid crisp" transform="translate(0,257.87)" d="M80,0h540" style="stroke: rgb(238, 238, 238); stroke-opacity: 1; stroke-width: 1px;"/><path class="ygrid crisp" transform="translate(0,217.32999999999998)" d="M80,0h540" style="stroke: rgb(238, 238, 238); stroke-opacity: 1; stroke-width: 1px;"/><path class="ygrid crisp" transform="translate(0,176.8)" d="M80,0h540" style="stroke: rgb(238, 238, 238); stroke-opacity: 1; stroke-width: 1px;"/><path class="ygrid crisp" transform="translate(0,136.27)" d="M80,0h540" style="stroke: rgb(238, 238, 238); stroke-opacity: 1; stroke-width: 1px;"/></g></g><g class="zerolinelayer"><path class="xzl zl crisp" transform="translate(80,0)" d="M0,100v320" style="stroke: rgb(68, 68, 68); stroke-opacity: 1; stroke-width: 1px;"/><path class="yzl zl crisp" transform="translate(0,420)" d="M80,0h540" style="stroke: rgb(68, 68, 68); stroke-opacity: 1; stroke-width: 1px;"/></g><path class="xlines-below"/><path class="ylines-below"/><g class="overlines-below"/><g class="xaxislayer-below"/><g class="yaxislayer-below"/><g class="overaxes-below"/><g class="plot" transform="translate(80,100)" clip-path="url(#clip90c816xyplot)"><g class="scatterlayer mlayer"><g class="trace scatter trace50fca7" style="stroke-miterlimit: 2;"><g class="fills"><g><path class="js-fill" d="M540,320L0,320L0,320L17.14,303.92L17.15,303.92L33.82,288.3L33.82,288.3L33.83,288.3L43.62,281.89L43.62,281.89L43.63,281.89L67.16,266.5L67.16,266.5L67.17,266.5L76.01,261.28L76.01,261.28L76.02,261.28L102.21,246.03L102.21,246.03L102.22,246.03L190.94,208.33L190.94,208.33L190.95,208.33L207.42,202.08L207.42,202.08L207.43,202.08L223.19,196.58L223.2,196.58L237.71,191.58L237.72,191.58L265.58,183.08L265.59,183.08L279.22,179.32L279.22,179.32L279.23,179.32L316.9,170.04L316.9,170.04L316.91,170.04L332.87,166.56L332.88,166.56L343.47,164.51L343.47,164.51L343.48,164.51L371.98,159.57L371.98,159.57L371.99,159.57L529.76,138.72L529.76,138.72L529.77,138.72L540,137.6" style="fill: rgb(17, 146, 232); fill-opacity: 0.5; stroke-width: 0;"/></g><g><path class="js-fill" d="M0,307.08L36.43,268.44L36.43,268.44L36.44,268.44L63.48,246.87L63.48,246.87L63.49,246.87L75.58,237.76L75.58,237.76L75.59,237.76L85.14,230.77L85.14,230.77L85.15,230.77L102.98,217.99L102.98,217.99L102.99,217.99L127.37,203.86L127.37,203.86L127.38,203.86L151.66,189.79L151.66,189.79L151.67,189.79L172.01,178.14L172.01,178.14L172.02,178.14L183.1,172.2L183.11,172.2L194.2,166.25L194.2,166.25L194.21,166.25L204.3,160.92L204.31,160.92L247.64,140.08L247.64,140.08L247.65,140.08L263.96,132.76L263.97,132.76L272.22,129.47L272.22,129.47L272.23,129.47L316.17,118.52L316.17,118.52L316.18,118.52L332.17,115.03L332.17,115.03L332.18,115.03L343.07,112.9L343.07,112.9L343.08,112.9L371.83,107.91L371.83,107.91L371.84,107.91L529.76,87.04L529.76,87.04L529.77,87.04L540,85.92L540,137.6L529.77,138.72L529.76,138.72L529.76,138.72L371.99,159.57L371.98,159.57L371.98,159.57L343.48,164.51L343.47,164.51L343.47,164.51L332.88,166.56L332.87,166.56L316.91,170.04L316.9,170.04L316.9,170.04L279.23,179.32L279.22,179.32L279.22,179.32L265.59,183.08L265.58,183.08L237.72,191.58L237.71,191.58L223.2,196.58L223.19,196.58L207.43,202.08L207.42,202.08L207.42,202.08L190.95,208.33L190.94,208.33L190.94,208.33L102.22,246.03L102.21,246.03L102.21,246.03L76.02,261.28L76.01,261.28L76.01,261.28L67.17,266.5L67.16,266.5L67.16,266.5L43.63,281.89L43.62,281.89L43.62,281.89L33.83,288.3L33.82,288.3L33.82,288.3L17.15,303.92L17.14,303.92L0,320Z" style="fill: rgb(0, 93, 93); fill-opacity: 0.5; stroke-width: 0;"/></g></g><g class="errorbars"/><g class="lines"><path class="js-line" d="M0,320L17.14,303.92L17.15,303.92L33.82,288.3L33.82,288.3L33.83,288.3L43.62,281.89L43.62,281.89L43.63,281.89L67.16,266.5L67.16,266.5L67.17,266.5L76.01,261.28L76.01,261.28L76.02,261.28L102.21,246.03L102.21,246.03L102.22,246.03L190.94,208.33L190.94,208.33L190.95,208.33L207.42,202.08L207.42,202.08L207.43,202.08L223.19,196.58L223.2,196.58L237.71,191.58L237.72,191.58L265.58,183.08L265.59,183.08L279.22,179.32L279.22,179.32L279.23,179.32L316.9,170.04L316.9,170.04L316.91,170.04L332.87,166.56L332.88,166.56L343.47,164.51L343.47,164.51L343.48,164.51L371.98,159.57L371.98,159.57L371.99,159.57L529.76,138.72L529.76,138.72L529.77,138.72L540,137.6" style="vector-effect: non-scaling-stroke; fill: none; stroke: rgb(17, 146, 232); stroke-opacity: 1; stroke-width: 0.5px; opacity: 1;"/></g><g class="points"/><g class="text"/></g><g class="trace scatter trace50e6a1" style="stroke-miterlimit: 2;"><g class="fills"><g><path class="js-fill" d="M0,307.08L36.43,268.44L36.43,268.44L36.44,268.44L63.48,246.87L63.48,246.87L63.49,246.87L67.5,243.67L67.5,240.63L108.61,209.84L108.61,209.84L108.62,209.84L193.93,157.66L193.93,157.66L193.94,157.66L209.86,148.73L209.86,148.73L209.87,148.73L221.19,142.64L221.19,142.64L221.2,142.64L240.67,132.37L240.68,132.37L272.71,117.18L272.71,117.18L272.72,117.18L316.21,106.35L316.21,106.35L316.22,106.35L332.18,102.87L332.18,102.87L332.19,102.87L343.12,100.73L343.12,100.73L343.13,100.73L371.84,95.75L371.84,95.75L371.85,95.75L529.76,74.88L529.76,74.88L529.77,74.88L540,73.76L540,85.92L529.77,87.04L529.76,87.04L529.76,87.04L371.84,107.91L371.83,107.91L371.83,107.91L343.08,112.9L343.07,112.9L343.07,112.9L332.18,115.03L332.17,115.03L332.17,115.03L316.18,118.52L316.17,118.52L316.17,118.52L272.23,129.47L272.22,129.47L272.22,129.47L263.97,132.76L263.96,132.76L247.65,140.08L247.64,140.08L247.64,140.08L204.31,160.92L204.3,160.92L194.21,166.25L194.2,166.25L194.2,166.25L183.11,172.2L183.1,172.2L172.02,178.14L172.01,178.14L172.01,178.14L151.67,189.79L151.66,189.79L151.66,189.79L127.38,203.86L127.37,203.86L127.37,203.86L102.99,217.99L102.98,217.99L102.98,217.99L85.15,230.77L85.14,230.77L85.14,230.77L75.59,237.76L75.58,237.76L75.58,237.76L63.49,246.87L63.48,246.87L63.48,246.87L36.44,268.44L36.43,268.44L36.43,268.44L0,307.08Z" style="fill: rgb(159, 24, 83); fill-opacity: 0.5; stroke-width: 0;"/></g></g><g class="errorbars"/><g class="lines"><path class="js-line" d="M0,307.08L36.43,268.44L36.43,268.44L36.44,268.44L63.48,246.87L63.48,246.87L63.49,246.87L75.58,237.76L75.58,237.76L75.59,237.76L85.14,230.77L85.14,230.77L85.15,230.77L102.98,217.99L102.98,217.99L102.99,217.99L127.37,203.86L127.37,203.86L127.38,203.86L151.66,189.79L151.66,189.79L151.67,189.79L172.01,178.14L172.01,178.14L172.02,178.14L183.1,172.2L183.11,172.2L194.2,166.25L194.2,166.25L194.21,166.25L204.3,160.92L204.31,160.92L247.64,140.08L247.64,140.08L247.65,140.08L263.96,132.76L263.97,132.76L272.22,129.47L272.22,129.47L272.23,129.47L316.17,118.52L316.17,118.52L316.18,118.52L332.17,115.03L332.17,115.03L332.18,115.03L343.07,112.9L343.07,112.9L343.08,112.9L371.83,107.91L371.83,107.91L371.84,107.91L529.76,87.04L529.76,87.04L529.77,87.04L540,85.92" style="vector-effect: non-scaling-stroke; fill: none; stroke: rgb(0, 93, 93); stroke-opacity: 1; stroke-width: 0.5px; opacity: 1;"/></g><g class="points"/><g class="text"/></g><g class="trace scatter trace7453c8" style="stroke-miterlimit: 2;"><g class="fills"><g><path class="js-fill" d="M0,307.08L36.43,268.44L36.43,268.44L36.44,268.44L63.48,246.87L63.48,246.87L63.49,246.87L67.5,243.67L67.5,231.51L106.47,196.79L106.47,196.79L106.48,196.79L119.7,186.74L119.7,186.74L119.71,186.74L195.92,130.03L195.92,130.03L195.93,130.03L211.62,119.19L211.62,119.19L211.63,119.19L223.71,111.06L223.71,111.06L223.72,111.06L235.77,102.95L235.77,102.95L235.78,102.95L243.69,97.95L243.69,97.95L243.7,97.95L272.45,80.77L272.45,80.77L272.46,80.77L316.21,69.87L316.21,69.87L316.22,69.87L332.18,66.39L332.18,66.39L332.19,66.39L343.12,64.25L343.12,64.25L343.13,64.25L371.84,59.27L371.84,59.27L371.85,59.27L529.76,38.4L529.76,38.4L529.77,38.4L540,37.28L540,73.76L529.77,74.88L529.76,74.88L529.76,74.88L371.85,95.75L371.84,95.75L371.84,95.75L343.13,100.73L343.12,100.73L343.12,100.73L332.19,102.87L332.18,102.87L332.18,102.87L316.22,106.35L316.21,106.35L316.21,106.35L272.72,117.18L272.71,117.18L272.71,117.18L240.68,132.37L240.67,132.37L221.2,142.64L221.19,142.64L221.19,142.64L209.87,148.73L209.86,148.73L209.86,148.73L193.94,157.66L193.93,157.66L193.93,157.66L108.62,209.84L108.61,209.84L108.61,209.84L67.5,240.63L67.5,243.67L63.49,246.87L63.48,246.87L63.48,246.87L36.44,268.44L36.43,268.44L36.43,268.44L0,307.08Z" style="fill: rgb(87, 4, 8); fill-opacity: 0.5; stroke-width: 0;"/></g></g><g class="errorbars"/><g class="lines"><path class="js-line" d="M0,307.08L36.43,268.44L36.43,268.44L36.44,268.44L63.48,246.87L63.48,246.87L63.49,246.87L67.5,243.67L67.5,240.63L108.61,209.84L108.61,209.84L108.62,209.84L193.93,157.66L193.93,157.66L193.94,157.66L209.86,148.73L209.86,148.73L209.87,148.73L221.19,142.64L221.19,142.64L221.2,142.64L240.67,132.37L240.68,132.37L272.71,117.18L272.71,117.18L272.72,117.18L316.21,106.35L316.21,106.35L316.22,106.35L332.18,102.87L332.18,102.87L332.19,102.87L343.12,100.73L343.12,100.73L343.13,100.73L371.84,95.75L371.84,95.75L371.85,95.75L529.76,74.88L529.76,74.88L529.77,74.88L540,73.76" style="vector-effect: non-scaling-stroke; fill: none; stroke: rgb(159, 24, 83); stroke-opacity: 1; stroke-width: 0.5px; opacity: 1;"/></g><g class="points"/><g class="text"/></g><g class="trace scatter trace1d13f3" style="stroke-miterlimit: 2;"><g class="fills"><g><path class="js-fill" d="M0,307.08L36.43,268.44L36.43,268.44L36.44,268.44L63.48,246.87L63.48,246.87L63.49,246.87L67.5,243.67L67.5,226.19L105.75,189L105.75,189L105.76,189L193.73,116.33L193.73,116.33L193.74,116.33L210.22,103.56L210.22,103.56L210.23,103.56L258.04,68.59L258.04,68.59L258.05,68.59L270.87,59.9L270.87,59.9L270.88,59.9L316.03,48.63L316.03,48.63L316.04,48.63L332,45.15L332,45.15L332.01,45.15L343.02,42.99L343.02,42.99L343.03,42.99L371.83,37.99L371.83,37.99L371.84,37.99L529.76,17.12L529.76,17.12L529.77,17.12L540,16L540,37.28L529.77,38.4L529.76,38.4L529.76,38.4L371.85,59.27L371.84,59.27L371.84,59.27L343.13,64.25L343.12,64.25L343.12,64.25L332.19,66.39L332.18,66.39L332.18,66.39L316.22,69.87L316.21,69.87L316.21,69.87L272.46,80.77L272.45,80.77L272.45,80.77L243.7,97.95L243.69,97.95L243.69,97.95L235.78,102.95L235.77,102.95L235.77,102.95L223.72,111.06L223.71,111.06L223.71,111.06L211.63,119.19L211.62,119.19L211.62,119.19L195.93,130.03L195.92,130.03L195.92,130.03L119.71,186.74L119.7,186.74L119.7,186.74L106.48,196.79L106.47,196.79L106.47,196.79L67.5,231.51L67.5,243.67L63.49,246.87L63.48,246.87L63.48,246.87L36.44,268.44L36.43,268.44L36.43,268.44L0,307.08Z" style="fill: rgb(105, 41, 196); fill-opacity: 0.5; stroke-width: 0;"/></g></g><g class="errorbars"/><g class="lines"><path class="js-line" d="M0,307.08L36.43,268.44L36.43,268.44L36.44,268.44L63.48,246.87L63.48,246.87L63.49,246.87L67.5,243.67L67.5,231.51L106.47,196.79L106.47,196.79L106.48,196.79L119.7,186.74L119.7,186.74L119.71,186.74L195.92,130.03L195.92,130.03L195.93,130.03L211.62,119.19L211.62,119.19L211.63,119.19L223.71,111.06L223.71,111.06L223.72,111.06L235.77,102.95L235.77,102.95L235.78,102.95L243.69,97.95L243.69,97.95L243.7,97.95L272.45,80.77L272.45,80.77L272.46,80.77L316.21,69.87L316.21,69.87L316.22,69.87L332.18,66.39L332.18,66.39L332.19,66.39L343.12,64.25L343.12,64.25L343.13,64.25L371.84,59.27L371.84,59.27L371.85,59.27L529.76,38.4L529.76,38.4L529.77,38.4L540,37.28" style="vector-effect: non-scaling-stroke; fill: none; stroke: rgb(87, 4, 8); stroke-opacity: 1; stroke-width: 0.5px; opacity: 1;"/></g><g class="points"/><g class="text"/></g><g class="trace scatter trace1e1c7a" style="stroke-miterlimit: 2;"><g class="fills"/><g class="errorbars"/><g class="lines"><path class="js-line" d="M0,307.08L36.43,268.44L36.43,268.44L36.44,268.44L63.48,246.87L63.48,246.87L63.49,246.87L67.5,243.67L67.5,226.19L105.75,189L105.75,189L105.76,189L193.73,116.33L193.73,116.33L193.74,116.33L210.22,103.56L210.22,103.56L210.23,103.56L258.04,68.59L258.04,68.59L258.05,68.59L270.87,59.9L270.87,59.9L270.88,59.9L316.03,48.63L316.03,48.63L316.04,48.63L332,45.15L332,45.15L332.01,45.15L343.02,42.99L343.02,42.99L343.03,42.99L371.83,37.99L371.83,37.99L371.84,37.99L529.76,17.12L529.76,17.12L529.77,17.12L540,16" style="vector-effect: non-scaling-stroke; fill: none; stroke: rgb(105, 41, 196); stroke-opacity: 1; stroke-width: 0.5px; opacity: 1;"/></g><g class="points"/><g class="text"/></g></g></g><g class="overplot"/><path class="xlines-above crisp" d="M0,0" style="fill: none;"/><path class="ylines-above crisp" d="M0,0" style="fill: none;"/><g class="overlines-above"/><g class="xaxislayer-above"><g class="xtick"><text text-anchor="middle" x="0" y="433" transform="translate(80,0)" style="font-family: Consolas; font-size: 12px; fill: rgb(68, 68, 68); fill-opacity: 1; white-space: pre; opacity: 1;">0</text></g><g class="xtick"><text text-anchor="middle" x="0" y="433" style="font-family: Consolas; font-size: 12px; fill: rgb(68, 68, 68); fill-opacity: 1; white-space: pre; opacity: 1;" transform="translate(215,0)">2</text></g><g class="xtick"><text text-anchor="middle" x="0" y="433" style="font-family: Consolas; font-size: 12px; fill: rgb(68, 68, 68); fill-opacity: 1; white-space: pre; opacity: 1;" transform="translate(350,0)">4</text></g><g class="xtick"><text text-anchor="middle" x="0" y="433" style="font-family: Consolas; font-size: 12px; fill: rgb(68, 68, 68); fill-opacity: 1; white-space: pre; opacity: 1;" transform="translate(485,0)">6</text></g><g class="xtick"><text text-anchor="middle" x="0" y="433" style="font-family: Consolas; font-size: 12px; fill: rgb(68, 68, 68); fill-opacity: 1; white-space: pre; opacity: 1;" transform="translate(620,0)">8</text></g></g><g class="yaxislayer-above"><g class="ytick"><text text-anchor="end" x="79" y="4.199999999999999" transform="translate(0,420)" style="font-family: Consolas; font-size: 12px; fill: rgb(68, 68, 68); fill-opacity: 1; white-space: pre; opacity: 1;">0</text></g><g class="ytick"><text text-anchor="end" x="79" y="4.199999999999999" style="font-family: Consolas; font-size: 12px; fill: rgb(68, 68, 68); fill-opacity: 1; white-space: pre; opacity: 1;" transform="translate(0,379.47)">0.2B</text></g><g class="ytick"><text text-anchor="end" x="79" y="4.199999999999999" style="font-family: Consolas; font-size: 12px; fill: rgb(68, 68, 68); fill-opacity: 1; white-space: pre; opacity: 1;" transform="translate(0,338.93)">0.4B</text></g><g class="ytick"><text text-anchor="end" x="79" y="4.199999999999999" style="font-family: Consolas; font-size: 12px; fill: rgb(68, 68, 68); fill-opacity: 1; white-space: pre; opacity: 1;" transform="translate(0,298.4)">0.6B</text></g><g class="ytick"><text text-anchor="end" x="79" y="4.199999999999999" style="font-family: Consolas; font-size: 12px; fill: rgb(68, 68, 68); fill-opacity: 1; white-space: pre; opacity: 1;" transform="translate(0,257.87)">0.8B</text></g><g class="ytick"><text text-anchor="end" x="79" y="4.199999999999999" style="font-family: Consolas; font-size: 12px; fill: rgb(68, 68, 68); fill-opacity: 1; white-space: pre; opacity: 1;" transform="translate(0,217.32999999999998)">1B</text></g><g class="ytick"><text text-anchor="end" x="79" y="4.199999999999999" style="font-family: Consolas; font-size: 12px; fill: rgb(68, 68, 68); fill-opacity: 1; white-space: pre; opacity: 1;" transform="translate(0,176.8)">1.2B</text></g><g class="ytick"><text text-anchor="end" x="79" y="4.199999999999999" style="font-family: Consolas; font-size: 12px; fill: rgb(68, 68, 68); fill-opacity: 1; white-space: pre; opacity: 1;" transform="translate(0,136.27)">1.4B</text></g></g><g class="overaxes-above"/></g></g><g class="polarlayer"/><g class="smithlayer"/><g class="ternarylayer"/><g class="geolayer"/><g class="funnelarealayer"/><g class="pielayer"/><g class="iciclelayer"/><g class="treemaplayer"/><g class="sunburstlayer"/><g class="glimages"/><defs id="topdefs-90c816"><g class="clips"/><clipPath id="legend90c816"><rect width="478" height="29" x="0" y="0"/></clipPath></defs><g class="layer-above"><g class="imagelayer"/><g class="shapelayer"/></g><g class="infolayer"><g class="legend" pointer-events="all" transform="translate(142,64.6)"><rect class="bg" shape-rendering="crispEdges" style="stroke: rgb(68, 68, 68); stroke-opacity: 1; fill: rgb(255, 255, 255); fill-opacity: 1; stroke-width: 0px;" width="478" height="29" x="0" y="0"/><g class="scrollbox" transform="" clip-path="url(#legend90c816)"><g class="groups"><g class="traces" transform="translate(0,14.5)" style="opacity: 1;"><text class="legendtext" text-anchor="start" x="40" y="4.680000000000001" style="font-family: Consolas; font-size: 12px; fill: rgb(68, 68, 68); fill-opacity: 1; white-space: pre;">SEED</text><g class="layers"><g class="legendfill"><path class="js-fill" d="M5,-2h30v6h-30z" style="stroke-width: 0; fill: rgb(105, 41, 196); fill-opacity: 0.5;"/></g><g class="legendlines"><path class="js-line" d="M5,-2h30" style="fill: none; stroke: rgb(105, 41, 196); stroke-opacity: 1; stroke-width: 0.5px;"/></g><g class="legendsymbols"><g class="legendpoints"/></g></g><rect class="legendtoggle" x="0" y="-9.5" width="75.5" height="19" style="fill: rgb(0, 0, 0); fill-opacity: 0;"/></g><g class="traces" transform="translate(78,14.5)" style="opacity: 1;"><text class="legendtext" text-anchor="start" x="40" y="4.680000000000001" style="font-family: Consolas; font-size: 12px; fill: rgb(68, 68, 68); fill-opacity: 1; white-space: pre;">PRIVATE</text><g class="layers"><g class="legendfill"><path class="js-fill" d="M5,-2h30v6h-30z" style="stroke-width: 0; fill: rgb(87, 4, 8); fill-opacity: 0.5;"/></g><g class="legendlines"><path class="js-line" d="M5,-2h30" style="fill: none; stroke: rgb(87, 4, 8); stroke-opacity: 1; stroke-width: 0.5px;"/></g><g class="legendsymbols"><g class="legendpoints"/></g></g><rect class="legendtoggle" x="0" y="-9.5" width="90.5" height="19" style="fill: rgb(0, 0, 0); fill-opacity: 0;"/></g><g class="traces" transform="translate(171,14.5)" style="opacity: 1;"><text class="legendtext" text-anchor="start" x="40" y="4.680000000000001" style="font-family: Consolas; font-size: 12px; fill: rgb(68, 68, 68); fill-opacity: 1; white-space: pre;">TREASURY</text><g class="layers"><g class="legendfill"><path class="js-fill" d="M5,-2h30v6h-30z" style="stroke-width: 0; fill: rgb(159, 24, 83); fill-opacity: 0.5;"/></g><g class="legendlines"><path class="js-line" d="M5,-2h30" style="fill: none; stroke: rgb(159, 24, 83); stroke-opacity: 1; stroke-width: 0.5px;"/></g><g class="legendsymbols"><g class="legendpoints"/></g></g><rect class="legendtoggle" x="0" y="-9.5" width="106.5" height="19" style="fill: rgb(0, 0, 0); fill-opacity: 0;"/></g><g class="traces" transform="translate(280,14.5)" style="opacity: 1;"><text class="legendtext" text-anchor="start" x="40" y="4.680000000000001" style="font-family: Consolas; font-size: 12px; fill: rgb(68, 68, 68); fill-opacity: 1; white-space: pre;">TEAM</text><g class="layers"><g class="legendfill"><path class="js-fill" d="M5,-2h30v6h-30z" style="stroke-width: 0; fill: rgb(0, 93, 93); fill-opacity: 0.5;"/></g><g class="legendlines"><path class="js-line" d="M5,-2h30" style="fill: none; stroke: rgb(0, 93, 93); stroke-opacity: 1; stroke-width: 0.5px;"/></g><g class="legendsymbols"><g class="legendpoints"/></g></g><rect class="legendtoggle" x="0" y="-9.5" width="76.5" height="19" style="fill: rgb(0, 0, 0); fill-opacity: 0;"/></g><g class="traces" transform="translate(359,14.5)" style="opacity: 1;"><text class="legendtext" text-anchor="start" x="40" y="4.680000000000001" style="font-family: Consolas; font-size: 12px; fill: rgb(68, 68, 68); fill-opacity: 1; white-space: pre;">COMMUNITY</text><g class="layers"><g class="legendfill"><path class="js-fill" d="M5,-2h30v6h-30z" style="stroke-width: 0; fill: rgb(17, 146, 232); fill-opacity: 0.5;"/></g><g class="legendlines"><path class="js-line" d="M5,-2h30" style="fill: none; stroke: rgb(17, 146, 232); stroke-opacity: 1; stroke-width: 0.5px;"/></g><g class="legendsymbols"><g class="legendpoints"/></g></g><rect class="legendtoggle" x="0" y="-9.5" width="116.5" height="19" style="fill: rgb(0, 0, 0); fill-opacity: 0;"/></g></g></g><rect class="scrollbar" rx="20" ry="3" width="0" height="0" style="fill: rgb(128, 139, 164); fill-opacity: 1;" x="0" y="0"/></g><g class="g-gtitle"><text class="gtitle" x="350" y="50" text-anchor="middle" dy="0em" style="font-family: Consolas; font-size: 17px; fill: rgb(68, 68, 68); opacity: 1; font-weight: normal; white-space: pre;">NIBI’s 8-year token release schedule</text></g><g class="g-xtitle"><text class="xtitle" x="350" y="472" text-anchor="middle" style="font-family: Consolas; font-size: 14px; fill: rgb(68, 68, 68); opacity: 1; font-weight: normal; white-space: pre;">Time (years)</text></g><g class="g-ytitle"><text class="ytitle" transform="rotate(-90,42,260)" x="42" y="260" text-anchor="middle" style="font-family: Consolas; font-size: 14px; fill: rgb(68, 68, 68); opacity: 1; font-weight: normal; white-space: pre;">NIBI amount</text></g></g></svg>