<svg class="main-svg" xmlns="http://www.w3.org/2000/svg" xmlns:xlink="http://www.w3.org/1999/xlink" width="700" height="500" style="" viewBox="0 0 700 500"><rect x="0" y="0" width="700" height="500" style="fill: rgb(255, 255, 255); fill-opacity: 1;"/><defs id="defs-df2508"><g class="clips"><clipPath id="clipdf2508xyplot" class="plotclip"><rect width="540" height="320"/></clipPath><clipPath class="axesclip" id="clipdf2508x"><rect x="80" y="0" width="540" height="500"/></clipPath><clipPath class="axesclip" id="clipdf2508y"><rect x="0" y="100" width="700" height="320"/></clipPath><clipPath class="axesclip" id="clipdf2508xy"><rect x="80" y="100" width="540" height="320"/></clipPath></g><g class="gradients"/><g class="patterns"/></defs><g class="bglayer"/><g class="layer-below"><g class="imagelayer"/><g class="shapelayer"/></g><g class="cartesianlayer"><g class="subplot xy"><g class="layer-subplot"><g class="shapelayer"/><g class="imagelayer"/></g><g class="gridlayer"><g class="x"><path class="xgrid crisp" transform="translate(215,0)" d="M0,100v320" style="stroke: rgb(238, 238, 238); stroke-opacity: 1; stroke-width: 1px;"/><path class="xgrid crisp" transform="translate(350,0)" d="M0,100v320" style="stroke: rgb(238, 238, 238); stroke-opacity: 1; stroke-width: 1px;"/><path class="xgrid crisp" transform="translate(485,0)" d="M0,100v320" style="stroke: rgb(238, 238, 238); stroke-opacity: 1; stroke-width: 1px;"/></g><g class="y"><path class="ygrid crisp" transform="translate(0,379.47)" d="M80,0h540" style="stroke: rgb(238, 238, 238); stroke-opacity: 1; stroke-width: 1px;"/><path class="ygrid crisp" transform="translate(0,338.93)" d="M80,0h540" style="stroke: rgb(238, 238, 238); stroke-opacity: 1; stroke-width: 1px;"/><path class="ygrid crisp" transform="translate(0,298.4)" d="M80,0h540" style="stroke: rgb(238, 238, 238); stroke-opacity: 1; stroke-width: 1px;"/><path class="ygrid crisp" transform="translate(0,257.87)" d="M80,0h540" style="stroke: rgb(238, 238, 238); stroke-opacity: 1; stroke-width: 1px;"/><path class="ygrid crisp" transform="translate(0,217.32999999999998)" d="M80,0h540" style="stroke: rgb(238, 238, 238); stroke-opacity: 1; stroke-width: 1px;"/><path class="ygrid crisp" transform="translate(0,176.8)" d="M80,0h540" style="stroke: rgb(238, 238, 238); stroke-opacity: 1; stroke-width: 1px;"/><path class="ygrid crisp" transform="translate(0,136.27)" d="M80,0h540" style="stroke: rgb(238, 238, 238); stroke-opacity: 1; stroke-width: 1px;"/></g></g><g class="zerolinelayer"><path class="xzl zl crisp" transform="translate(80,0)" d="M0,100v320" style="stroke: rgb(68, 68, 68); stroke-opacity: 1; stroke-width: 1px;"/><path class="yzl zl crisp" transform="translate(0,420)" d="M80,0h540" style="stroke: rgb(68, 68, 68); stroke-opacity: 1; stroke-width: 1px;"/></g><path class="xlines-below"/><path class="ylines-below"/><g class="overlines-below"/><g class="xaxislayer-below"/><g class="yaxislayer-below"/><g class="overaxes-below"/><g class="plot" transform="translate(80,100)" clip-path="url(#clipdf2508xyplot)"><g class="scatterlayer mlayer"><g class="trace scatter trace627f45" style="stroke-miterlimit: 2;"><g class="fills"><g><path class="js-fill" d="M540,320L0,320L0,320L17.14,303.92L17.15,303.92L33.82,288.3L33.82,288.3L33.83,288.3L43.62,281.89L43.62,281.89L43.63,281.89L67.16,266.5L67.16,266.5L67.17,266.5L76.01,261.28L76.01,261.28L76.02,261.28L102.21,246.03L102.21,246.03L102.22,246.03L190.94,208.33L190.94,208.33L190.95,208.33L207.42,202.08L207.42,202.08L207.43,202.08L223.19,196.58L223.2,196.58L237.71,191.58L237.72,191.58L265.58,183.08L265.59,183.08L279.22,179.32L279.22,179.32L279.23,179.32L316.9,170.04L316.9,170.04L316.91,170.04L332.87,166.56L332.88,166.56L343.47,164.51L343.47,164.51L343.48,164.51L371.98,159.57L371.98,159.57L371.99,159.57L529.76,138.72L529.76,138.72L529.77,138.72L540,137.6" style="fill: rgb(17, 146, 232); fill-opacity: 0.5; stroke-width: 0;"/></g><g><path class="js-fill" d="M0,316.96L34.09,283.93L34.09,283.93L34.1,283.93L49.07,273.63L49.08,273.63L78.97,253.83L78.98,253.83L107.23,237.18L107.23,237.18L107.24,237.18L134.79,224.24L134.79,224.24L134.8,224.24L162.26,211.34L162.26,211.34L162.27,211.34L177.37,204.62L177.38,204.62L218.62,187.75L218.62,187.75L218.63,187.75L236.3,180.99L236.3,180.99L236.31,180.99L280.9,166.72L280.91,166.72L317.13,157.83L317.13,157.83L317.14,157.83L333.1,154.35L333.1,154.35L333.11,154.35L343.59,152.33L343.59,152.33L343.6,152.33L372,147.41L372,147.41L372.01,147.41L529.76,126.56L529.76,126.56L529.77,126.56L540,125.44L540,137.6L529.77,138.72L529.76,138.72L529.76,138.72L371.99,159.57L371.98,159.57L371.98,159.57L343.48,164.51L343.47,164.51L343.47,164.51L332.88,166.56L332.87,166.56L316.91,170.04L316.9,170.04L316.9,170.04L279.23,179.32L279.22,179.32L279.22,179.32L265.59,183.08L265.58,183.08L237.72,191.58L237.71,191.58L223.2,196.58L223.19,196.58L207.43,202.08L207.42,202.08L207.42,202.08L190.95,208.33L190.94,208.33L190.94,208.33L102.22,246.03L102.21,246.03L102.21,246.03L76.02,261.28L76.01,261.28L76.01,261.28L67.17,266.5L67.16,266.5L67.16,266.5L43.63,281.89L43.62,281.89L43.62,281.89L33.83,288.3L33.82,288.3L33.82,288.3L17.15,303.92L17.14,303.92L0,320Z" style="fill: rgb(159, 24, 83); fill-opacity: 0.5; stroke-width: 0;"/></g></g><g class="errorbars"/><g class="lines"><path class="js-line" d="M0,320L17.14,303.92L17.15,303.92L33.82,288.3L33.82,288.3L33.83,288.3L43.62,281.89L43.62,281.89L43.63,281.89L67.16,266.5L67.16,266.5L67.17,266.5L76.01,261.28L76.01,261.28L76.02,261.28L102.21,246.03L102.21,246.03L102.22,246.03L190.94,208.33L190.94,208.33L190.95,208.33L207.42,202.08L207.42,202.08L207.43,202.08L223.19,196.58L223.2,196.58L237.71,191.58L237.72,191.58L265.58,183.08L265.59,183.08L279.22,179.32L279.22,179.32L279.23,179.32L316.9,170.04L316.9,170.04L316.91,170.04L332.87,166.56L332.88,166.56L343.47,164.51L343.47,164.51L343.48,164.51L371.98,159.57L371.98,159.57L371.99,159.57L529.76,138.72L529.76,138.72L529.77,138.72L540,137.6" style="vector-effect: non-scaling-stroke; fill: none; stroke: rgb(17, 146, 232); stroke-opacity: 1; stroke-width: 0.5px; opacity: 1;"/></g><g class="points"/><g class="text"/></g><g class="trace scatter trace887304" style="stroke-miterlimit: 2;"><g class="fills"><g><path class="js-fill" d="M0,316.96L34.09,283.93L34.09,283.93L34.1,283.93L49.07,273.63L49.08,273.63L67.5,260.96L67.5,248.04L102.85,219.55L102.85,219.55L102.86,219.55L131.81,200.41L131.82,200.41L142.41,193.4L142.42,193.4L169.9,175.28L169.9,175.28L169.91,175.28L223.4,143.16L223.41,143.16L240.28,133.65L240.28,133.65L240.29,133.65L250.67,128.14L250.67,128.14L250.68,128.14L261.06,122.63L261.07,122.63L270.34,117.8L270.34,117.8L270.35,117.8L315.94,106.41L315.94,106.41L315.95,106.41L331.94,102.92L331.94,102.92L331.95,102.92L366.99,96.57L366.99,96.57L367,96.57L380.65,94.6L380.66,94.6L529.76,74.88L529.76,74.88L529.77,74.88L540,73.76L540,125.44L529.77,126.56L529.76,126.56L529.76,126.56L372.01,147.41L372,147.41L372,147.41L343.6,152.33L343.59,152.33L343.59,152.33L333.11,154.35L333.1,154.35L333.1,154.35L317.14,157.83L317.13,157.83L317.13,157.83L280.91,166.72L280.9,166.72L236.31,180.99L236.3,180.99L236.3,180.99L218.63,187.75L218.62,187.75L218.62,187.75L177.38,204.62L177.37,204.62L162.27,211.34L162.26,211.34L162.26,211.34L134.8,224.24L134.79,224.24L134.79,224.24L107.24,237.18L107.23,237.18L107.23,237.18L78.98,253.83L78.97,253.83L49.08,273.63L49.07,273.63L34.1,283.93L34.09,283.93L34.09,283.93L0,316.96Z" style="fill: rgb(0, 93, 93); fill-opacity: 0.5; stroke-width: 0;"/></g></g><g class="errorbars"/><g class="lines"><path class="js-line" d="M0,316.96L34.09,283.93L34.09,283.93L34.1,283.93L49.07,273.63L49.08,273.63L78.97,253.83L78.98,253.83L107.23,237.18L107.23,237.18L107.24,237.18L134.79,224.24L134.79,224.24L134.8,224.24L162.26,211.34L162.26,211.34L162.27,211.34L177.37,204.62L177.38,204.62L218.62,187.75L218.62,187.75L218.63,187.75L236.3,180.99L236.3,180.99L236.31,180.99L280.9,166.72L280.91,166.72L317.13,157.83L317.13,157.83L317.14,157.83L333.1,154.35L333.1,154.35L333.11,154.35L343.59,152.33L343.59,152.33L343.6,152.33L372,147.41L372,147.41L372.01,147.41L529.76,126.56L529.76,126.56L529.77,126.56L540,125.44" style="vector-effect: non-scaling-stroke; fill: none; stroke: rgb(159, 24, 83); stroke-opacity: 1; stroke-width: 0.5px; opacity: 1;"/></g><g class="points"/><g class="text"/></g><g class="trace scatter tracef46907" style="stroke-miterlimit: 2;"><g class="fills"><g><path class="js-fill" d="M0,316.96L34.09,283.93L34.09,283.93L34.1,283.93L49.07,273.63L49.08,273.63L67.5,260.96L67.5,238.92L87.87,219.61L87.88,219.61L103.01,205.53L103.01,205.53L103.02,205.53L129.11,184.75L129.12,184.75L155.11,164.05L155.11,164.05L155.12,164.05L174.48,148.88L174.48,148.88L174.49,148.88L225.04,111.81L225.04,111.81L225.05,111.81L269.71,81.6L269.71,81.6L269.72,81.6L272.07,80.87L272.07,80.87L272.08,80.87L316.17,69.88L316.17,69.88L316.18,69.88L332.17,66.39L332.17,66.39L332.18,66.39L343.07,64.26L343.07,64.26L343.08,64.26L371.83,59.27L371.83,59.27L371.84,59.27L529.76,38.4L529.76,38.4L529.77,38.4L540,37.28L540,73.76L529.77,74.88L529.76,74.88L529.76,74.88L380.66,94.6L380.65,94.6L367,96.57L366.99,96.57L366.99,96.57L331.95,102.92L331.94,102.92L331.94,102.92L315.95,106.41L315.94,106.41L315.94,106.41L270.35,117.8L270.34,117.8L270.34,117.8L261.07,122.63L261.06,122.63L250.68,128.14L250.67,128.14L250.67,128.14L240.29,133.65L240.28,133.65L240.28,133.65L223.41,143.16L223.4,143.16L169.91,175.28L169.9,175.28L169.9,175.28L142.42,193.4L142.41,193.4L131.82,200.41L131.81,200.41L102.86,219.55L102.85,219.55L102.85,219.55L67.5,248.04L67.5,260.96L49.08,273.63L49.07,273.63L34.1,283.93L34.09,283.93L34.09,283.93L0,316.96Z" style="fill: rgb(87, 4, 8); fill-opacity: 0.5; stroke-width: 0;"/></g></g><g class="errorbars"/><g class="lines"><path class="js-line" d="M0,316.96L34.09,283.93L34.09,283.93L34.1,283.93L49.07,273.63L49.08,273.63L67.5,260.96L67.5,248.04L102.85,219.55L102.85,219.55L102.86,219.55L131.81,200.41L131.82,200.41L142.41,193.4L142.42,193.4L169.9,175.28L169.9,175.28L169.91,175.28L223.4,143.16L223.41,143.16L240.28,133.65L240.28,133.65L240.29,133.65L250.67,128.14L250.67,128.14L250.68,128.14L261.06,122.63L261.07,122.63L270.34,117.8L270.34,117.8L270.35,117.8L315.94,106.41L315.94,106.41L315.95,106.41L331.94,102.92L331.94,102.92L331.95,102.92L366.99,96.57L366.99,96.57L367,96.57L380.65,94.6L380.66,94.6L529.76,74.88L529.76,74.88L529.77,74.88L540,73.76" style="vector-effect: non-scaling-stroke; fill: none; stroke: rgb(0, 93, 93); stroke-opacity: 1; stroke-width: 0.5px; opacity: 1;"/></g><g class="points"/><g class="text"/></g><g class="trace scatter trace125a9c" style="stroke-miterlimit: 2;"><g class="fills"><g><path class="js-fill" d="M0,316.96L34.09,283.93L34.09,283.93L34.1,283.93L49.07,273.63L49.08,273.63L67.5,260.96L67.5,233.6L109.67,191.58L109.68,191.58L133.97,170.32L133.98,170.32L142.54,162.82L142.55,162.82L166.84,141.56L166.85,141.56L173.66,135.81L173.67,135.81L185.67,125.82L185.68,125.82L222.95,95.72L222.95,95.72L222.96,95.72L240.34,82.2L240.35,82.2L251.34,74.01L251.35,74.01L271.68,59.69L271.68,59.69L271.69,59.69L316.08,48.62L316.08,48.62L316.09,48.62L332.08,45.13L332.08,45.13L332.09,45.13L343.02,42.99L343.02,42.99L343.03,42.99L371.83,37.99L371.83,37.99L371.84,37.99L529.76,17.12L529.76,17.12L529.77,17.12L540,16L540,37.28L529.77,38.4L529.76,38.4L529.76,38.4L371.84,59.27L371.83,59.27L371.83,59.27L343.08,64.26L343.07,64.26L343.07,64.26L332.18,66.39L332.17,66.39L332.17,66.39L316.18,69.88L316.17,69.88L316.17,69.88L272.08,80.87L272.07,80.87L272.07,80.87L269.72,81.6L269.71,81.6L269.71,81.6L225.05,111.81L225.04,111.81L225.04,111.81L174.49,148.88L174.48,148.88L174.48,148.88L155.12,164.05L155.11,164.05L155.11,164.05L129.12,184.75L129.11,184.75L103.02,205.53L103.01,205.53L103.01,205.53L87.88,219.61L87.87,219.61L67.5,238.92L67.5,260.96L49.08,273.63L49.07,273.63L34.1,283.93L34.09,283.93L34.09,283.93L0,316.96Z" style="fill: rgb(105, 41, 196); fill-opacity: 0.5; stroke-width: 0;"/></g></g><g class="errorbars"/><g class="lines"><path class="js-line" d="M0,316.96L34.09,283.93L34.09,283.93L34.1,283.93L49.07,273.63L49.08,273.63L67.5,260.96L67.5,238.92L87.87,219.61L87.88,219.61L103.01,205.53L103.01,205.53L103.02,205.53L129.11,184.75L129.12,184.75L155.11,164.05L155.11,164.05L155.12,164.05L174.48,148.88L174.48,148.88L174.49,148.88L225.04,111.81L225.04,111.81L225.05,111.81L269.71,81.6L269.71,81.6L269.72,81.6L272.07,80.87L272.07,80.87L272.08,80.87L316.17,69.88L316.17,69.88L316.18,69.88L332.17,66.39L332.17,66.39L332.18,66.39L343.07,64.26L343.07,64.26L343.08,64.26L371.83,59.27L371.83,59.27L371.84,59.27L529.76,38.4L529.76,38.4L529.77,38.4L540,37.28" style="vector-effect: non-scaling-stroke; fill: none; stroke: rgb(87, 4, 8); stroke-opacity: 1; stroke-width: 0.5px; opacity: 1;"/></g><g class="points"/><g class="text"/></g><g class="trace scatter traced9bf12" style="stroke-miterlimit: 2;"><g class="fills"/><g class="errorbars"/><g class="lines"><path class="js-line" d="M0,316.96L34.09,283.93L34.09,283.93L34.1,283.93L49.07,273.63L49.08,273.63L67.5,260.96L67.5,233.6L109.67,191.58L109.68,191.58L133.97,170.32L133.98,170.32L142.54,162.82L142.55,162.82L166.84,141.56L166.85,141.56L173.66,135.81L173.67,135.81L185.67,125.82L185.68,125.82L222.95,95.72L222.95,95.72L222.96,95.72L240.34,82.2L240.35,82.2L251.34,74.01L251.35,74.01L271.68,59.69L271.68,59.69L271.69,59.69L316.08,48.62L316.08,48.62L316.09,48.62L332.08,45.13L332.08,45.13L332.09,45.13L343.02,42.99L343.02,42.99L343.03,42.99L371.83,37.99L371.83,37.99L371.84,37.99L529.76,17.12L529.76,17.12L529.77,17.12L540,16" style="vector-effect: non-scaling-stroke; fill: none; stroke: rgb(105, 41, 196); stroke-opacity: 1; stroke-width: 0.5px; opacity: 1;"/></g><g class="points"/><g class="text"/></g></g></g><g class="overplot"/><path class="xlines-above crisp" d="M0,0" style="fill: none;"/><path class="ylines-above crisp" d="M0,0" style="fill: none;"/><g class="overlines-above"/><g class="xaxislayer-above"><g class="xtick"><text text-anchor="middle" x="0" y="433" transform="translate(80,0)" style="font-family: Consolas; font-size: 12px; fill: rgb(68, 68, 68); fill-opacity: 1; white-space: pre; opacity: 1;">0</text></g><g class="xtick"><text text-anchor="middle" x="0" y="433" style="font-family: Consolas; font-size: 12px; fill: rgb(68, 68, 68); fill-opacity: 1; white-space: pre; opacity: 1;" transform="translate(215,0)">2</text></g><g class="xtick"><text text-anchor="middle" x="0" y="433" style="font-family: Consolas; font-size: 12px; fill: rgb(68, 68, 68); fill-opacity: 1; white-space: pre; opacity: 1;" transform="translate(350,0)">4</text></g><g class="xtick"><text text-anchor="middle" x="0" y="433" style="font-family: Consolas; font-size: 12px; fill: rgb(68, 68, 68); fill-opacity: 1; white-space: pre; opacity: 1;" transform="translate(485,0)">6</text></g><g class="xtick"><text text-anchor="middle" x="0" y="433" style="font-family: Consolas; font-size: 12px; fill: rgb(68, 68, 68); fill-opacity: 1; white-space: pre; opacity: 1;" transform="translate(620,0)">8</text></g></g><g class="yaxislayer-above"><g class="ytick"><text text-anchor="end" x="79" y="4.199999999999999" transform="translate(0,420)" style="font-family: Consolas; font-size: 12px; fill: rgb(68, 68, 68); fill-opacity: 1; white-space: pre; opacity: 1;">0</text></g><g class="ytick"><text text-anchor="end" x="79" y="4.199999999999999" style="font-family: Consolas; font-size: 12px; fill: rgb(68, 68, 68); fill-opacity: 1; white-space: pre; opacity: 1;" transform="translate(0,379.47)">0.2B</text></g><g class="ytick"><text text-anchor="end" x="79" y="4.199999999999999" style="font-family: Consolas; font-size: 12px; fill: rgb(68, 68, 68); fill-opacity: 1; white-space: pre; opacity: 1;" transform="translate(0,338.93)">0.4B</text></g><g class="ytick"><text text-anchor="end" x="79" y="4.199999999999999" style="font-family: Consolas; font-size: 12px; fill: rgb(68, 68, 68); fill-opacity: 1; white-space: pre; opacity: 1;" transform="translate(0,298.4)">0.6B</text></g><g class="ytick"><text text-anchor="end" x="79" y="4.199999999999999" style="font-family: Consolas; font-size: 12px; fill: rgb(68, 68, 68); fill-opacity: 1; white-space: pre; opacity: 1;" transform="translate(0,257.87)">0.8B</text></g><g class="ytick"><text text-anchor="end" x="79" y="4.199999999999999" style="font-family: Consolas; font-size: 12px; fill: rgb(68, 68, 68); fill-opacity: 1; white-space: pre; opacity: 1;" transform="translate(0,217.32999999999998)">1B</text></g><g class="ytick"><text text-anchor="end" x="79" y="4.199999999999999" style="font-family: Consolas; font-size: 12px; fill: rgb(68, 68, 68); fill-opacity: 1; white-space: pre; opacity: 1;" transform="translate(0,176.8)">1.2B</text></g><g class="ytick"><text text-anchor="end" x="79" y="4.199999999999999" style="font-family: Consolas; font-size: 12px; fill: rgb(68, 68, 68); fill-opacity: 1; white-space: pre; opacity: 1;" transform="translate(0,136.27)">1.4B</text></g></g><g class="overaxes-above"/></g></g><g class="polarlayer"/><g class="smithlayer"/><g class="ternarylayer"/><g class="geolayer"/><g class="funnelarealayer"/><g class="pielayer"/><g class="iciclelayer"/><g class="treemaplayer"/><g class="sunburstlayer"/><g class="glimages"/><defs id="topdefs-df2508"><g class="clips"/><clipPath id="legenddf2508"><rect width="478" height="29" x="0" y="0"/></clipPath></defs><g class="layer-above"><g class="imagelayer"/><g class="shapelayer"/></g><g class="infolayer"><g class="legend" pointer-events="all" transform="translate(142,64.6)"><rect class="bg" shape-rendering="crispEdges" width="478" height="29" x="0" y="0" style="stroke: rgb(68, 68, 68); stroke-opacity: 1; fill: rgb(255, 255, 255); fill-opacity: 1; stroke-width: 0px;"/><g class="scrollbox" transform="" clip-path="url(#legenddf2508)"><g class="groups"><g class="traces" transform="translate(0,14.5)" style="opacity: 1;"><text class="legendtext" text-anchor="start" x="40" y="4.680000000000001" style="font-family: Consolas; font-size: 12px; fill: rgb(68, 68, 68); fill-opacity: 1; white-space: pre;">SEED</text><g class="layers"><g class="legendfill"><path class="js-fill" d="M5,-2h30v6h-30z" style="stroke-width: 0; fill: rgb(105, 41, 196); fill-opacity: 0.5;"/></g><g class="legendlines"><path class="js-line" d="M5,-2h30" style="fill: none; stroke: rgb(105, 41, 196); stroke-opacity: 1; stroke-width: 0.5px;"/></g><g class="legendsymbols"><g class="legendpoints"/></g></g><rect class="legendtoggle" x="0" y="-9.5" width="75.5" height="19" style="fill: rgb(0, 0, 0); fill-opacity: 0;"/></g><g class="traces" transform="translate(78,14.5)" style="opacity: 1;"><text class="legendtext" text-anchor="start" x="40" y="4.680000000000001" style="font-family: Consolas; font-size: 12px; fill: rgb(68, 68, 68); fill-opacity: 1; white-space: pre;">PRIVATE</text><g class="layers"><g class="legendfill"><path class="js-fill" d="M5,-2h30v6h-30z" style="stroke-width: 0; fill: rgb(87, 4, 8); fill-opacity: 0.5;"/></g><g class="legendlines"><path class="js-line" d="M5,-2h30" style="fill: none; stroke: rgb(87, 4, 8); stroke-opacity: 1; stroke-width: 0.5px;"/></g><g class="legendsymbols"><g class="legendpoints"/></g></g><rect class="legendtoggle" x="0" y="-9.5" width="90.5" height="19" style="fill: rgb(0, 0, 0); fill-opacity: 0;"/></g><g class="traces" transform="translate(171,14.5)" style="opacity: 1;"><text class="legendtext" text-anchor="start" x="40" y="4.680000000000001" style="font-family: Consolas; font-size: 12px; fill: rgb(68, 68, 68); fill-opacity: 1; white-space: pre;">TEAM</text><g class="layers"><g class="legendfill"><path class="js-fill" d="M5,-2h30v6h-30z" style="stroke-width: 0; fill: rgb(0, 93, 93); fill-opacity: 0.5;"/></g><g class="legendlines"><path class="js-line" d="M5,-2h30" style="fill: none; stroke: rgb(0, 93, 93); stroke-opacity: 1; stroke-width: 0.5px;"/></g><g class="legendsymbols"><g class="legendpoints"/></g></g><rect class="legendtoggle" x="0" y="-9.5" width="76.5" height="19" style="fill: rgb(0, 0, 0); fill-opacity: 0;"/></g><g class="traces" transform="translate(250,14.5)" style="opacity: 1;"><text class="legendtext" text-anchor="start" x="40" y="4.680000000000001" style="font-family: Consolas; font-size: 12px; fill: rgb(68, 68, 68); fill-opacity: 1; white-space: pre;">TREASURY</text><g class="layers"><g class="legendfill"><path class="js-fill" d="M5,-2h30v6h-30z" style="stroke-width: 0; fill: rgb(159, 24, 83); fill-opacity: 0.5;"/></g><g class="legendlines"><path class="js-line" d="M5,-2h30" style="fill: none; stroke: rgb(159, 24, 83); stroke-opacity: 1; stroke-width: 0.5px;"/></g><g class="legendsymbols"><g class="legendpoints"/></g></g><rect class="legendtoggle" x="0" y="-9.5" width="106.5" height="19" style="fill: rgb(0, 0, 0); fill-opacity: 0;"/></g><g class="traces" transform="translate(359,14.5)" style="opacity: 1;"><text class="legendtext" text-anchor="start" x="40" y="4.680000000000001" style="font-family: Consolas; font-size: 12px; fill: rgb(68, 68, 68); fill-opacity: 1; white-space: pre;">COMMUNITY</text><g class="layers"><g class="legendfill"><path class="js-fill" d="M5,-2h30v6h-30z" style="stroke-width: 0; fill: rgb(17, 146, 232); fill-opacity: 0.5;"/></g><g class="legendlines"><path class="js-line" d="M5,-2h30" style="fill: none; stroke: rgb(17, 146, 232); stroke-opacity: 1; stroke-width: 0.5px;"/></g><g class="legendsymbols"><g class="legendpoints"/></g></g><rect class="legendtoggle" x="0" y="-9.5" width="116.5" height="19" style="fill: rgb(0, 0, 0); fill-opacity: 0;"/></g></g></g><rect class="scrollbar" rx="20" ry="3" width="0" height="0" x="0" y="0" style="fill: rgb(128, 139, 164); fill-opacity: 1;"/></g><g class="g-gtitle"><text class="gtitle" x="350" y="50" text-anchor="middle" dy="0em" style="font-family: Consolas; font-size: 17px; fill: rgb(68, 68, 68); opacity: 1; font-weight: normal; white-space: pre;">NIBI’s 8-year token release schedule</text></g><g class="g-xtitle"><text class="xtitle" x="350" y="472" text-anchor="middle" style="font-family: Consolas; font-size: 14px; fill: rgb(68, 68, 68); opacity: 1; font-weight: normal; white-space: pre;">Time (years)</text></g><g class="g-ytitle"><text class="ytitle" transform="rotate(-90,42,260)" x="42" y="260" text-anchor="middle" style="font-family: Consolas; font-size: 14px; fill: rgb(68, 68, 68); opacity: 1; font-weight: normal; white-space: pre;">NIBI amount</text></g></g></svg>